<svg width="82" height="82" viewBox="0 0.726562 82 82" fill="none" xmlns="http://www.w3.org/2000/svg">
<path d="M41 0.726562C76.5753 0.726562 82 6.15121 82 41.7266C82 77.3019 76.5753 82.7266 41 82.7266C5.42465 82.7266 0 77.3019 0 41.7266C0 6.15121 5.42465 0.726562 41 0.726562ZM40.8906 16.4258C26.9164 16.4258 15.5879 27.7543 15.5879 41.7285C15.5879 46.7757 15.5879 58.0219 15.5879 63.665C15.588 65.5281 17.091 67.0312 18.9541 67.0312H40.8906C54.8647 67.0311 66.1932 55.7026 66.1934 41.7285C66.1934 27.7544 54.8647 16.4259 40.8906 16.4258ZM40.8906 21.4863C52.0699 21.4864 61.1328 30.5492 61.1328 41.7285C61.1327 52.9078 52.0699 61.9706 40.8906 61.9707C29.7113 61.9707 20.6485 52.9078 20.6484 41.7285C20.6484 30.5491 29.7113 21.4863 40.8906 21.4863ZM32.6445 32.2549C31.9921 32.0027 31.3503 32.6469 31.5996 33.3037L39.3145 53.6045C39.6345 54.4468 40.877 54.2162 40.877 53.3145V41.6836H52.665C53.5605 41.6836 53.7908 40.4368 52.9551 40.1133L32.6445 32.2549Z" fill="currentColor"/>
</svg>
