<svg width="114" height="49" viewBox="0 0 114 49" fill="none" xmlns="http://www.w3.org/2000/svg">
<path d="M0.5 2.5H89C101.15 2.5 111 12.3497 111 24.5C111 36.6503 101.15 46.5 89 46.5H0" stroke="#202020" stroke-width="5"/>
<path d="M71.5 11.5L75.4846 11.5L94.5923 37.5H98.5" stroke="#202020" stroke-width="5"/>
<path d="M71.5 37.5L75.4846 37.5L94.5923 11.5H98.5" stroke="#202020" stroke-width="5"/>
<path d="M2.5 47.5L2.5 11.5L6.92857 11.5L15.7857 36.4999L20.2143 36.5L29.0714 11.5L33.5 11.5L33.5 39.5" stroke="#202020" stroke-width="5"/>
<path d="M43.5 18.5L43.5 16.4999C43.5001 13.7385 45.7386 11.5 48.5 11.5H59.5C62.2614 11.5 64.5 13.7386 64.5 16.5V32.5C64.5 35.2614 62.2614 37.5 59.5 37.5H49.9613C46.3928 37.5 43.5 34.6072 43.5 31.0387C43.5 27.4703 46.3928 24.5775 49.9613 24.5775H58.5615" stroke="#202020" stroke-width="5"/>
</svg>
