<svg width="114" height="49" viewBox="0 0 114 49" fill="none" xmlns="http://www.w3.org/2000/svg">
<path d="M2.5 45.1406V23.9453C2.5 20.5078 3.71875 17.5703 6.15625 15.1328C8.59375 12.7109 11.5234 11.5 14.9453 11.5C18.3828 11.5 21.3203 12.7109 23.7578 15.1328C26.1953 17.5703 27.4141 20.5078 27.4141 23.9453C27.4141 27.3828 26.1953 30.3125 23.7578 32.7344C21.3203 35.1719 18.3828 36.3906 14.9453 36.3906C13.3203 36.3906 11.7578 36.0859 10.2578 35.4766" stroke="#202020" stroke-width="5"/>
<path d="M37.5 8.5V39.5" stroke="#202020" stroke-width="5"/>
<path d="M95.7512 17.3124C95.7512 15.7057 94.9426 14.3353 93.3253 13.2012C91.728 12.0671 89.7912 11.5 87.515 11.5C85.2388 11.5 83.292 12.0671 81.6747 13.2012C80.0574 14.3353 79.2488 15.7057 79.2488 17.3124C79.2488 18.9191 80.0574 20.2895 81.6747 21.4237C83.292 22.5578 85.2388 23.1249 87.515 23.1249C89.9908 23.1249 92.1073 23.8337 93.8644 25.2514C95.6215 26.6501 96.5 28.3419 96.5 30.3266C96.5 32.2924 95.6215 33.9842 93.8644 35.4019C92.1073 36.8006 89.9908 37.5 87.515 37.5C85.0391 37.5 82.9126 36.8006 81.1356 35.4019C79.3785 33.9842 78.5 32.2924 78.5 30.3266" stroke="#202020" stroke-width="5"/>
<path d="M0.5 2.5H89C101.15 2.5 111 12.3497 111 24.5C111 36.6503 101.15 46.5 89 46.5H0" stroke="#202020" stroke-width="5"/>
<path d="M47.5 8.5V25C47.5 31.3513 52.6487 36.5 59 36.5C65.3513 36.5 70.5 31.3513 70.5 25V8.5" stroke="#202020" stroke-width="5"/>
</svg>
