<svg width="108" height="49" viewBox="0 0 108 49" fill="none" xmlns="http://www.w3.org/2000/svg">
<path d="M35.5 39.5V25.4869C35.5 21.6308 36.8579 18.3357 39.5736 15.6014C42.2893 12.8671 45.5707 11.5 49.418 11.5C52.2033 11.5 54.7536 12.2712 57.069 13.8136C59.4017 15.356 61.1164 17.4243 62.2131 20.0183M71.7286 33.4208C69.2427 30.9017 67.9997 27.874 67.9997 24.3376C67.9997 20.8012 69.2427 17.7735 71.7286 15.2544C74.2306 12.7515 77.2377 11.5 80.7501 11.5C84.2625 11.5 87.2697 12.7515 89.7716 15.2544C92.2576 17.7735 93.5005 20.8012 93.5005 24.3376C93.5005 27.874 92.2576 30.9017 89.7716 33.4208C87.2697 35.9237 84.2625 37.1752 80.7501 37.1752C77.2377 37.1752 74.2306 35.9237 71.7286 33.4208Z" stroke="#202020" stroke-width="5"/>
<path d="M2.5 47V23.9453C2.5 20.5078 3.71875 17.5703 6.15625 15.1328C8.59375 12.7109 11.5234 11.5 14.9453 11.5C18.3828 11.5 21.3203 12.7109 23.7578 15.1328C26.1953 17.5703 27.4141 20.5078 27.4141 23.9453C27.4141 27.3828 26.1953 30.3125 23.7578 32.7344C21.3203 35.1719 18.3828 36.3906 14.9453 36.3906C13.3203 36.3906 11.7578 36.0859 10.2578 35.4766" stroke="#202020" stroke-width="5"/>
<path d="M0.499893 2.5H82.9999C95.1502 2.5 105 12.3497 105 24.5C105 36.6503 95.1502 46.5 82.9999 46.5H0" stroke="#202020" stroke-width="5"/>
</svg>
