<svg width="223" height="121" viewBox="0 0 223 121" fill="none" xmlns="http://www.w3.org/2000/svg">
<path d="M118.029 61.8344C120.44 61.8344 122.52 62.293 124.269 63.2104C126.04 64.1277 127.405 65.4397 128.365 67.1464C129.347 68.8317 129.837 70.8264 129.837 73.1304C129.837 75.413 129.347 77.3864 128.365 79.0504C127.405 80.7144 126.04 81.9944 124.269 82.8904C122.52 83.7864 120.44 84.2344 118.029 84.2344H110.029V61.8344H118.029ZM118.029 81.0664C120.589 81.0664 122.552 80.373 123.917 78.9864C125.304 77.5784 125.997 75.6264 125.997 73.1304C125.997 70.613 125.304 68.629 123.917 67.1784C122.552 65.7277 120.589 65.0024 118.029 65.0024H113.837V81.0664H118.029ZM140.06 84.4584C138.46 84.4584 137.052 84.1064 135.836 83.4024C134.642 82.6984 133.703 81.717 133.02 80.4584C132.359 79.1997 132.028 77.749 132.028 76.1064C132.028 74.549 132.359 73.1624 133.02 71.9464C133.682 70.7304 134.599 69.7704 135.772 69.0664C136.946 68.3624 138.279 68.0104 139.772 68.0104C141.287 68.0104 142.62 68.341 143.772 69.0024C144.924 69.6637 145.82 70.5917 146.46 71.7864C147.122 72.9597 147.452 74.325 147.452 75.8824C147.452 76.1384 147.442 76.4157 147.42 76.7144C147.399 76.9917 147.367 77.2904 147.324 77.6104H135.932C136.039 78.357 136.274 79.0077 136.636 79.5624C137.02 80.0957 137.5 80.5117 138.076 80.8104C138.652 81.109 139.314 81.2584 140.06 81.2584C140.956 81.2584 141.756 81.077 142.46 80.7144C143.186 80.3517 143.687 79.8717 143.964 79.2744L147.132 80.3304C146.492 81.6104 145.543 82.6237 144.284 83.3704C143.026 84.0957 141.618 84.4584 140.06 84.4584ZM143.516 74.6664C143.495 74.005 143.314 73.4077 142.972 72.8744C142.631 72.341 142.183 71.925 141.628 71.6264C141.074 71.3064 140.455 71.1464 139.772 71.1464C139.175 71.1464 138.61 71.2957 138.076 71.5944C137.543 71.893 137.084 72.309 136.7 72.8424C136.338 73.3544 136.103 73.9624 135.996 74.6664H143.516ZM152.845 79.0824C152.994 79.6797 153.25 80.1384 153.613 80.4584C153.997 80.7784 154.413 81.0024 154.861 81.1304C155.309 81.237 155.736 81.2904 156.141 81.2904C156.973 81.2904 157.624 81.1304 158.093 80.8104C158.584 80.469 158.829 80.0424 158.829 79.5304C158.829 79.1037 158.669 78.773 158.349 78.5384C158.029 78.3037 157.613 78.1224 157.101 77.9944C156.61 77.845 156.098 77.6957 155.565 77.5464C154.989 77.397 154.37 77.2264 153.709 77.0344C153.069 76.8424 152.461 76.5757 151.885 76.2344C151.309 75.893 150.84 75.4557 150.477 74.9224C150.114 74.389 149.933 73.7277 149.933 72.9384C149.933 71.9357 150.21 71.0717 150.765 70.3464C151.32 69.5997 152.077 69.0237 153.037 68.6184C153.997 68.213 155.074 68.0104 156.269 68.0104C157.698 68.0104 158.936 68.309 159.981 68.9064C161.026 69.5037 161.784 70.3784 162.253 71.5304L159.085 72.5544C158.936 72.2557 158.712 71.9997 158.413 71.7864C158.136 71.573 157.794 71.4237 157.389 71.3384C157.005 71.2317 156.61 71.1784 156.205 71.1784C155.522 71.1784 154.946 71.317 154.477 71.5944C154.008 71.8717 153.773 72.2664 153.773 72.7784C153.773 73.0344 153.848 73.2584 153.997 73.4504C154.168 73.6424 154.392 73.8024 154.669 73.9304C154.946 74.037 155.277 74.1437 155.661 74.2504C156.045 74.3357 156.45 74.4424 156.877 74.5704C157.56 74.7624 158.232 74.9757 158.893 75.2104C159.576 75.4237 160.194 75.701 160.749 76.0424C161.325 76.3837 161.773 76.8317 162.093 77.3864C162.434 77.941 162.626 78.645 162.669 79.4984C162.669 80.4157 162.402 81.2584 161.869 82.0264C161.336 82.773 160.568 83.3704 159.565 83.8184C158.584 84.245 157.41 84.4584 156.045 84.4584C154.466 84.4584 153.112 84.117 151.981 83.4344C150.85 82.7517 150.082 81.653 149.677 80.1384L152.845 79.0824ZM166.264 68.2344H169.88V84.2344H166.264V68.2344ZM168.088 65.8024C167.427 65.8024 166.872 65.5784 166.424 65.1304C165.976 64.6824 165.752 64.149 165.752 63.5304C165.752 62.869 165.976 62.3144 166.424 61.8664C166.872 61.4184 167.427 61.1944 168.088 61.1944C168.728 61.1944 169.272 61.4184 169.72 61.8664C170.168 62.3144 170.392 62.869 170.392 63.5304C170.392 64.149 170.168 64.6824 169.72 65.1304C169.272 65.5784 168.728 65.8024 168.088 65.8024ZM186.051 68.2344H189.315V81.8344C189.315 83.6477 188.867 85.205 187.971 86.5064C187.075 87.829 185.784 88.8424 184.099 89.5464C182.413 90.2717 180.387 90.6344 178.019 90.6344L177.475 87.5304C180.163 87.4664 182.2 86.9544 183.587 85.9944C184.995 85.0344 185.699 83.6584 185.699 81.8664V81.8344H186.115C185.624 82.5597 184.909 83.1784 183.971 83.6904C183.053 84.2024 181.955 84.4584 180.675 84.4584C179.267 84.4584 178.019 84.117 176.931 83.4344C175.843 82.7517 174.989 81.7917 174.371 80.5544C173.773 79.317 173.475 77.877 173.475 76.2344C173.475 74.5917 173.773 73.1517 174.371 71.9144C174.989 70.677 175.843 69.717 176.931 69.0344C178.019 68.3517 179.267 68.0104 180.675 68.0104C181.464 68.0104 182.179 68.117 182.819 68.3304C183.48 68.5224 184.056 68.789 184.547 69.1304C185.059 69.4504 185.475 69.813 185.795 70.2184L186.051 68.2344ZM177.347 76.2344C177.347 77.7064 177.731 78.901 178.499 79.8184C179.267 80.7357 180.291 81.1944 181.571 81.1944C182.317 81.1944 183 81.0024 183.619 80.6184C184.237 80.213 184.739 79.637 185.123 78.8904C185.507 78.1437 185.699 77.2584 185.699 76.2344C185.699 75.1677 185.507 74.2717 185.123 73.5464C184.739 72.7997 184.227 72.2344 183.587 71.8504C182.968 71.4664 182.296 71.2744 181.571 71.2744C180.291 71.2744 179.267 71.733 178.499 72.6504C177.731 73.5464 177.347 74.741 177.347 76.2344ZM193.237 68.2344H196.501L196.757 69.8024C197.291 69.2477 197.92 68.8104 198.645 68.4904C199.392 68.1704 200.192 68.0104 201.045 68.0104C202.304 68.0104 203.381 68.277 204.277 68.8104C205.195 69.3224 205.899 70.0904 206.389 71.1144C206.88 72.117 207.125 73.3757 207.125 74.8904V84.2344H203.509V75.3704C203.509 74.0264 203.232 73.013 202.677 72.3304C202.144 71.6477 201.333 71.3064 200.245 71.3064C199.136 71.3064 198.293 71.6584 197.717 72.3624C197.141 73.045 196.853 74.0584 196.853 75.4024V84.2344H193.237V68.2344Z" fill="#26251E"/>
<path d="M121.523 52.1107C119.945 52.1107 118.462 51.8334 117.075 51.2787C115.689 50.7241 114.473 49.9454 113.427 48.9427C112.403 47.9187 111.593 46.7134 110.995 45.3267C110.419 43.9187 110.131 42.3721 110.131 40.6867C110.131 39.0227 110.419 37.4974 110.995 36.1107C111.593 34.7027 112.403 33.4867 113.427 32.4627C114.473 31.4387 115.689 30.6494 117.075 30.0947C118.462 29.5401 119.945 29.2627 121.523 29.2627C123.102 29.2627 124.574 29.5401 125.939 30.0947C127.326 30.6494 128.531 31.4387 129.555 32.4627C130.601 33.4867 131.411 34.7027 131.987 36.1107C132.585 37.4974 132.883 39.0227 132.883 40.6867C132.883 42.3721 132.585 43.9187 131.987 45.3267C131.411 46.7134 130.601 47.9187 129.555 48.9427C128.531 49.9454 127.326 50.7241 125.939 51.2787C124.574 51.8334 123.102 52.1107 121.523 52.1107ZM121.523 48.8787C122.974 48.8787 124.265 48.5481 125.395 47.8867C126.526 47.2041 127.411 46.2547 128.051 45.0387C128.691 43.8014 129.011 42.3507 129.011 40.6867C129.011 39.0014 128.691 37.5507 128.051 36.3347C127.411 35.1187 126.526 34.1801 125.395 33.5187C124.265 32.8361 122.974 32.4947 121.523 32.4947C120.073 32.4947 118.782 32.8361 117.651 33.5187C116.521 34.1801 115.625 35.1187 114.963 36.3347C114.323 37.5507 114.003 39.0014 114.003 40.6867C114.003 42.3507 114.323 43.8014 114.963 45.0387C115.625 46.2547 116.521 47.2041 117.651 47.8867C118.782 48.5481 120.073 48.8787 121.523 48.8787ZM140.985 49.5187L141.401 49.4227V58.2867H137.785V35.8867H141.049L141.305 37.8707C141.838 37.2521 142.532 36.7294 143.385 36.3027C144.238 35.8761 145.273 35.6627 146.489 35.6627C147.876 35.6627 149.102 36.0041 150.169 36.6867C151.257 37.3694 152.1 38.3294 152.697 39.5667C153.316 40.7827 153.625 42.2227 153.625 43.8867C153.625 45.5294 153.316 46.9694 152.697 48.2067C152.1 49.4441 151.268 50.4041 150.201 51.0867C149.134 51.7694 147.897 52.1107 146.489 52.1107C145.209 52.1107 144.1 51.8654 143.161 51.3747C142.222 50.8627 141.497 50.2441 140.985 49.5187ZM149.753 43.8867C149.753 42.4147 149.358 41.2201 148.569 40.3027C147.801 39.3854 146.809 38.9267 145.593 38.9267C144.825 38.9267 144.121 39.1187 143.481 39.5027C142.862 39.8867 142.361 40.4414 141.977 41.1667C141.593 41.8921 141.401 42.7987 141.401 43.8867C141.401 44.9534 141.593 45.8601 141.977 46.6067C142.361 47.3321 142.862 47.8867 143.481 48.2707C144.121 48.6547 144.825 48.8467 145.593 48.8467C146.809 48.8467 147.801 48.3881 148.569 47.4707C149.358 46.5534 149.753 45.3587 149.753 43.8867ZM165.772 52.1107C164.172 52.1107 162.764 51.7587 161.548 51.0547C160.353 50.3507 159.414 49.3694 158.732 48.1107C158.07 46.8521 157.74 45.4014 157.74 43.7587C157.74 42.2014 158.07 40.8147 158.732 39.5987C159.393 38.3827 160.31 37.4227 161.484 36.7187C162.657 36.0147 163.99 35.6627 165.484 35.6627C166.998 35.6627 168.332 35.9934 169.484 36.6547C170.636 37.3161 171.532 38.2441 172.172 39.4387C172.833 40.6121 173.164 41.9774 173.164 43.5347C173.164 43.7907 173.153 44.0681 173.132 44.3667C173.11 44.6441 173.078 44.9427 173.036 45.2627H161.644C161.75 46.0094 161.985 46.6601 162.348 47.2147C162.732 47.7481 163.212 48.1641 163.788 48.4627C164.364 48.7614 165.025 48.9107 165.772 48.9107C166.668 48.9107 167.468 48.7294 168.172 48.3667C168.897 48.0041 169.398 47.5241 169.676 46.9267L172.844 47.9827C172.204 49.2627 171.254 50.2761 169.996 51.0227C168.737 51.7481 167.329 52.1107 165.772 52.1107ZM169.228 42.3187C169.206 41.6574 169.025 41.0601 168.684 40.5267C168.342 39.9934 167.894 39.5774 167.34 39.2787C166.785 38.9587 166.166 38.7987 165.484 38.7987C164.886 38.7987 164.321 38.9481 163.788 39.2467C163.254 39.5454 162.796 39.9614 162.412 40.4947C162.049 41.0067 161.814 41.6147 161.708 42.3187H169.228ZM178.173 35.8867H181.437L181.693 37.4547C182.226 36.9001 182.855 36.4627 183.581 36.1427C184.327 35.8227 185.127 35.6627 185.981 35.6627C187.239 35.6627 188.317 35.9294 189.213 36.4627C190.13 36.9747 190.834 37.7427 191.325 38.7667C191.815 39.7694 192.061 41.0281 192.061 42.5427V51.8867H188.445V43.0227C188.445 41.6787 188.167 40.6654 187.613 39.9827C187.079 39.3001 186.269 38.9587 185.181 38.9587C184.071 38.9587 183.229 39.3107 182.653 40.0147C182.077 40.6974 181.789 41.7107 181.789 43.0547V51.8867H178.173V35.8867Z" fill="#26251E"/>
<g clip-path="url(#clip0_603_740)">
<path fill-rule="evenodd" clip-rule="evenodd" d="M60.3765 28.8047C76.2253 28.8047 89.0733 41.6527 89.0733 57.5015C89.0732 73.3503 76.2253 86.1983 60.3765 86.1983H35.4977C33.3845 86.1983 31.6798 84.4938 31.6798 82.3806C31.6798 75.9804 31.6797 63.2256 31.6797 57.5015C31.6797 41.6527 44.5277 28.8047 60.3765 28.8047ZM60.3766 34.5441C47.6976 34.5441 37.4191 44.8226 37.4191 57.5016C37.4191 70.1806 47.6976 80.459 60.3766 80.459C73.0556 80.4589 83.3339 70.1806 83.334 57.5016C83.334 44.8226 73.0556 34.5441 60.3766 34.5441Z" fill="#202020"/>
<path d="M58.5871 70.9762L49.8379 47.9521C49.5548 47.207 50.2825 46.4765 51.0227 46.7628L74.0576 55.6746C75.0056 56.0413 74.7444 57.4564 73.7287 57.4564H60.3592V70.6471C60.3592 71.6699 58.9502 71.9315 58.5871 70.9762Z" fill="#202020"/>
</g>
<defs>
<clipPath id="clip0_603_740">
<rect width="93" height="93" fill="white" transform="translate(14 11)"/>
</clipPath>
</defs>
</svg>
