<svg width="93" height="93" viewBox="0 0 93 93" fill="none" xmlns="http://www.w3.org/2000/svg">
<g clip-path="url(#clip0_603_774)">
<g clip-path="url(#clip1_603_774)">
<path fill-rule="evenodd" clip-rule="evenodd" d="M46.3765 17.8047C62.2253 17.8047 75.0733 30.6527 75.0733 46.5015C75.0732 62.3503 62.2253 75.1983 46.3765 75.1983H21.4977C19.3845 75.1983 17.6798 73.4938 17.6798 71.3806C17.6798 64.9804 17.6797 52.2256 17.6797 46.5015C17.6797 30.6527 30.5277 17.8047 46.3765 17.8047ZM46.3766 23.5441C33.6976 23.5441 23.4191 33.8226 23.4191 46.5016C23.4191 59.1806 33.6976 69.459 46.3766 69.459C59.0556 69.4589 69.3339 59.1806 69.334 46.5016C69.334 33.8226 59.0556 23.5441 46.3766 23.5441Z" fill="#202020"/>
<path d="M44.5871 59.9762L35.8379 36.9521C35.5548 36.207 36.2825 35.4765 37.0227 35.7628L60.0576 44.6746C61.0056 45.0413 60.7444 46.4564 59.7287 46.4564H46.3592V59.6471C46.3592 60.6699 44.9502 60.9315 44.5871 59.9762Z" fill="#202020"/>
</g>
</g>
<defs>
<clipPath id="clip0_603_774">
<rect width="93" height="93" fill="white"/>
</clipPath>
<clipPath id="clip1_603_774">
<rect width="93" height="93" fill="white"/>
</clipPath>
</defs>
</svg>
