<svg width="93" height="93" viewBox="0 0 93 93" fill="none" xmlns="http://www.w3.org/2000/svg">
<g clip-path="url(#clip0_603_759)">
<g clip-path="url(#clip1_603_759)">
<path d="M93 46.1914C93 86.5391 86.8477 92.6914 46.5 92.6914C6.15235 92.6914 0 86.5391 0 46.1914C0 5.84375 6.15235 -0.308594 46.5 -0.308594C86.8477 -0.308594 93 5.84375 93 46.1914Z" fill="#202020"/>
<path fill-rule="evenodd" clip-rule="evenodd" d="M46.3765 17.4961C62.2253 17.4961 75.0733 30.3441 75.0733 46.1929C75.0732 62.0417 62.2253 74.8897 46.3765 74.8897H21.4977C19.3845 74.8897 17.6798 73.1852 17.6798 71.0721C17.6798 64.6718 17.6797 51.917 17.6797 46.1929C17.6797 30.3441 30.5277 17.4961 46.3765 17.4961ZM46.3766 23.2355C33.6976 23.2355 23.4191 33.514 23.4191 46.193C23.4191 58.872 33.6976 69.1504 46.3766 69.1504C59.0556 69.1503 69.3339 58.872 69.334 46.193C69.334 33.514 59.0556 23.2355 46.3766 23.2355Z" fill="white"/>
<path d="M44.5891 59.6598L35.8399 36.6357C35.5568 35.8906 36.2845 35.1601 37.0247 35.4464L60.0595 44.3582C61.0075 44.7249 60.7463 46.14 59.7306 46.14H46.3612V59.3307C46.3612 60.3534 44.9521 60.6151 44.5891 59.6598Z" fill="white"/>
</g>
</g>
<defs>
<clipPath id="clip0_603_759">
<rect width="93" height="93" fill="white"/>
</clipPath>
<clipPath id="clip1_603_759">
<rect width="93" height="93" fill="white" transform="translate(0 -0.308594)"/>
</clipPath>
</defs>
</svg>
