<svg width="252" height="300" viewBox="0 0 252 300" fill="none" xmlns="http://www.w3.org/2000/svg">
<g clip-path="url(#clip0_793_476)">
<path d="M44.3198 111.837C46.8119 111.112 50.2897 110.355 52.8319 110.289C78.1588 109.629 117.627 137.451 135.953 154.029C139.072 152.031 142.239 150.107 145.45 148.26C156.943 141.683 173.792 134.507 187.268 138.117C193.512 139.817 199.775 144.164 202.826 149.998C213.54 170.497 196.371 190.964 181.145 203.149C179.293 204.631 176.96 206.583 174.951 207.692C176.769 215.406 176.602 226.63 175.143 234.333C172.365 249 164.508 261.208 152.015 269.45C147.178 272.641 144.159 273.865 138.866 276.044C125.294 281.633 112.364 282.676 97.9593 279.851C95.8896 279.313 93.8481 278.813 91.7653 278.188C67.6548 270.951 40.7877 246.225 44.2919 218.935C46.9446 198.28 70.2435 188.598 88.9349 191.853C104.09 194.492 113.921 203.044 122.618 215.203C125.843 214.062 129.382 212.229 130.906 209.071C135.892 198.739 123.988 186.693 115.956 182.387C105.029 176.531 93.3007 176.308 81.7325 179.87C78.099 180.988 74.7757 182.582 71.1816 183.639C56.9646 179.155 36.8704 156.442 31.6417 142.317C26.8792 129.451 30.9769 116.681 44.3198 111.837Z" fill="#00FE00"/>
<path d="M47.7343 123.341C48.2171 123.195 48.7026 123.059 49.1915 122.935C68.7696 117.91 102.319 142.289 117.168 154.096C120.204 156.524 123.194 159.01 126.134 161.554C129.268 164.236 133.357 168.959 137.643 167.285C141.316 165.85 144.407 163.267 147.799 161.382C155.438 157.137 163.243 152.64 171.688 150.235C180.055 147.68 191.14 149.189 193.557 159.059C196.606 171.492 182.917 184.525 174.677 192.106C171.19 195.315 165.811 198.334 163.493 202.51C162.396 204.884 163.362 210.506 163.57 213.263C164.425 224.623 162.92 236.264 156.923 246.198C149.987 257.686 139.687 263.632 127.112 267.062C110.93 271.479 95.744 269.031 81.2985 260.587C70.398 254.216 60.2574 243.554 57.0498 230.998C56.5419 229.011 56.0945 226.665 56.0438 224.62C55.925 219.483 57.8875 214.517 61.4858 210.85C73.4282 198.666 96.2952 202.749 107.345 214.018C112.441 219.216 117.425 227.123 110.965 233.356C108.478 235.777 105.126 237.105 101.654 237.04C94.5877 236.891 87.4081 232.044 82.6357 227.093C79.8726 230.662 76.9458 234.208 74.1461 237.774C79.686 243.143 87.4196 247.674 94.9417 249.608C102.147 251.46 110.708 250.485 117.158 246.633C121.751 243.887 125.546 238.082 126.335 232.789C126.61 230.946 126.281 229.257 126.77 227.232C127.248 226.719 131.011 225.202 131.989 224.689C136.93 222.169 141.917 217.495 143.354 211.947C148.58 191.763 129.929 173.055 112.022 167.633C99.9208 163.969 83.2856 164.997 72.3106 170.86C69.7068 168.617 66.3688 166.244 63.605 164.139C54.6882 157.345 30.7009 132.569 47.7343 123.341Z" fill="#262626"/>
<path d="M137.967 82.9288C141.265 83.3667 147 84.8448 150.832 85.4874C149.407 93.6769 147.427 102.839 145.734 111.019L145.642 111.253C144.794 111.566 135.373 109.697 133.789 109.346L137.967 82.9288Z" fill="#00FE00"/>
<path d="M173.834 103.734C174.61 104.097 180.523 112.854 181.803 114.381C175.632 118.459 169.543 122.791 163.403 126.954L163.016 126.985C160.97 124.911 157.883 120.52 155.808 118.035C160.057 115.028 170.154 107.069 173.834 103.734Z" fill="#00FE00"/>
<path d="M108.05 92.7619C108.97 93.4596 119.48 109.32 120.831 111.331C119.537 112.352 112.731 118.042 111.809 118.427L111.438 118.175C106.852 112.161 102.064 106.363 97.4928 100.368C100.9 97.8463 104.788 95.3278 108.05 92.7619Z" fill="#00FE00"/>
<mask id="path-6-outside-1_793_476" maskUnits="userSpaceOnUse" x="47.3456" y="9.33131" width="120.928" height="87.3019" fill="black">
<rect fill="white" x="47.3456" y="9.33131" width="120.928" height="87.3019"/>
<path d="M72.4089 77.8033C74.8923 73.4185 76.5141 69.1903 77.274 65.1186C74.1183 65.4573 70.5839 64.9454 66.6708 63.5827C67.9422 66.7994 69.8549 71.5396 72.4089 77.8033ZM82.5723 59.4872C82.8912 59.5591 83.1096 59.7352 83.2275 60.0153C83.3307 60.2605 83.3639 60.5352 83.327 60.8393C82.9743 65.1931 81.8568 69.3947 79.9742 73.4441C78.0917 77.4935 75.5613 81.8156 72.3829 86.4105C72.0658 86.8326 71.6888 87.2592 71.2519 87.6905C70.8002 88.0867 70.3292 88.3881 69.8389 88.5944C69.3135 88.8156 68.7992 88.8671 68.296 88.7491C67.7431 88.6107 67.3708 88.3139 67.1791 87.8586C66.9285 87.2632 67.0401 86.5978 67.514 85.8624C67.5693 85.7979 67.6172 85.7159 67.6578 85.6163C67.6983 85.5168 67.7739 85.4025 67.8845 85.2735L62.6108 72.1561C61.4868 69.2897 59.7362 64.9347 57.3592 59.0913C57.2947 59.0359 57.2256 58.9207 57.1519 58.7456C57.1224 58.6756 57.0837 58.4857 57.0358 58.176L56.7926 57.5981C56.5475 56.9179 56.767 56.1659 57.4509 55.342C58.1201 54.4832 58.9451 53.8474 59.9258 53.4346C60.5912 53.1545 61.1682 53.056 61.6566 53.139C62.1801 53.2072 62.5524 53.5041 62.7735 54.0294L62.9947 54.5548C69.6944 58.6201 75.8212 60.2466 81.3751 59.4345C81.9742 59.3885 82.3733 59.406 82.5723 59.4872ZM103.743 62.0793C103.753 59.8489 103.337 57.7355 102.497 55.7392C101.834 54.1631 100.949 52.845 99.8431 51.785C98.7576 50.6752 97.46 49.9433 95.9504 49.5892C94.944 49.3531 94.0906 49.3825 93.3901 49.6773C93.1099 49.7952 92.7891 50.0127 92.4278 50.3297C92.802 50.3371 93.0628 50.516 93.2102 50.8662C93.2987 51.0763 93.3318 51.351 93.3096 51.6902C93.1527 53.5703 93.2299 55.5168 93.5411 57.5297C93.8376 59.5075 94.3692 61.4071 95.1357 63.2283C96.0202 65.3298 97.1757 67.1935 98.6022 68.8194C99.4647 69.6933 100.249 70.3321 100.955 70.7358C101.268 70.8925 101.552 70.9792 101.806 70.9958C102.527 69.8679 103.025 68.5039 103.3 66.904C103.61 65.2893 103.758 63.6811 103.743 62.0793ZM95.2461 43.9487C97.1097 43.5766 98.8976 43.7104 100.61 44.3503C102.322 44.9901 103.84 46.0004 105.163 47.3812C106.472 48.727 107.495 50.2755 108.232 52.0267C109.102 54.0931 109.591 56.3816 109.699 58.8921C109.807 61.4027 109.544 63.8634 108.91 66.2743C108.276 68.6852 107.322 70.7772 106.048 72.5503C104.849 74.2091 103.48 75.3628 101.938 76.0114C100.397 76.66 98.85 76.7548 97.2962 76.2956C95.7424 75.8364 94.3269 74.8243 93.0497 73.2592C91.6877 71.6885 90.5276 69.7649 89.5694 67.4883C88.9945 66.1224 88.5394 64.7473 88.2041 63.3629C87.9884 63.5362 87.6354 63.726 87.1451 63.9324C85.9542 64.4336 85.1893 64.2814 84.8502 63.4758C84.7323 63.1956 84.6715 62.9533 84.6679 62.7486C84.4582 58.9201 85.0283 55.2788 86.378 51.8247C87.748 48.3208 89.9916 45.9129 93.1087 44.6009C93.564 44.4093 94.2765 44.1919 95.2461 43.9487ZM124.878 31.1054C126.721 37.8336 128.829 44.0171 131.202 49.656C132.352 52.3879 133.622 55.1105 135.011 57.824C135.17 58.0047 135.278 58.1651 135.337 58.3052C135.381 58.4102 135.413 58.5826 135.431 58.8222C135.446 58.8572 135.436 58.8821 135.401 58.8969L135.445 59.0019C135.485 59.6858 135.216 60.4175 134.637 61.1972C134.044 61.9418 133.324 62.5334 132.478 62.9719C131.136 63.7017 130.14 63.6878 129.492 62.9301C126.88 60.1538 123.02 56.4188 117.911 51.7252L116.661 50.5195C118.224 55.0154 120.017 59.7649 122.04 64.7678C122.35 65.5033 122.139 66.3751 121.409 67.3833C120.664 68.3564 119.784 69.0568 118.768 69.4843C118.138 69.7496 117.579 69.8408 117.09 69.7578C116.602 69.6748 116.257 69.3457 116.056 68.7706C112.257 59.1556 109.144 49.8494 106.717 40.8521L106.681 40.6198C106.287 39.8788 106.465 38.9793 107.215 37.9214C107.966 36.8634 108.849 36.1207 109.864 35.6932C110.915 35.2509 111.71 35.3285 112.25 35.9258C114.654 38.5011 117.968 41.7236 122.195 45.5932C121.019 42.2125 119.979 38.7129 119.074 35.0944C118.885 34.3497 119.187 33.5009 119.982 32.548C120.761 31.5602 121.642 30.8598 122.622 30.4471C123.883 29.9164 124.635 30.1358 124.878 31.1054ZM159.332 45.3611C159.931 45.3151 160.326 45.5198 160.518 45.9751C160.754 46.5355 160.679 47.2884 160.294 48.234C159.868 49.279 159.077 50.0448 157.921 50.5313C157.361 50.7672 156.858 50.8961 156.414 50.9182C154.307 51.1041 152.501 51.514 150.995 52.1479C148.368 53.2535 146.042 55.2218 144.018 58.0528C143.695 58.5596 143.246 59.0582 142.669 59.5484C142.112 59.9889 141.553 60.3271 140.993 60.5629C140.468 60.7841 140.01 60.8734 139.622 60.8309C139.218 60.7535 138.928 60.5046 138.751 60.0843C138.647 59.8391 138.594 59.6143 138.59 59.4096C138.412 56.1452 138.141 53.2494 137.779 50.7222C137.451 48.1803 136.898 45.6918 136.121 43.2567C135.109 39.9719 134.294 37.594 133.675 36.123C132.038 32.2353 130.032 29.5752 127.657 28.1427C127.393 28.0062 127.187 27.7629 127.04 27.4126C126.745 26.7122 126.963 25.8578 127.693 24.8497C128.408 23.8065 129.239 23.0859 130.184 22.6878C130.815 22.4225 131.329 22.3709 131.727 22.5332C132.256 22.5167 132.672 22.6716 132.974 22.9979C134.823 24.9409 136.856 26.3937 139.076 27.3562C141.28 28.2836 143.433 28.3051 145.534 27.4206C145.92 27.2584 146.468 26.9451 147.18 26.4807C147.641 26.2043 147.941 26.0366 148.081 25.9776C148.677 25.727 149.173 25.6829 149.571 25.8451C149.99 25.9576 150.295 26.2415 150.487 26.6968C150.693 27.1872 150.689 27.766 150.475 28.4332C150.296 29.0857 149.918 29.6571 149.341 30.1473C148.112 31.242 146.779 32.0916 145.343 32.696C143.627 33.4183 141.833 33.761 139.962 33.7238C140.718 35.7147 141.249 37.2225 141.557 38.2474L142.582 41.712C143.845 40.8919 145.123 40.1068 146.415 39.3568L147.128 38.9947C148.529 38.405 149.429 38.583 149.827 39.5287C150.092 40.1591 149.978 40.8669 149.484 41.6521C148.99 42.4372 148.404 43.0547 147.728 43.5043C146.73 44.1715 145.338 45.0256 143.55 46.0669C143.887 47.9452 144.144 49.7332 144.323 51.4309C146.281 49.6174 148.451 48.2094 150.832 47.207C153.459 46.1013 156.292 45.4861 159.332 45.3611Z"/>
</mask>
<path d="M72.4089 77.8033C74.8923 73.4185 76.5141 69.1903 77.274 65.1186C74.1183 65.4573 70.5839 64.9454 66.6708 63.5827C67.9422 66.7994 69.8549 71.5396 72.4089 77.8033ZM82.5723 59.4872C82.8912 59.5591 83.1096 59.7352 83.2275 60.0153C83.3307 60.2605 83.3639 60.5352 83.327 60.8393C82.9743 65.1931 81.8568 69.3947 79.9742 73.4441C78.0917 77.4935 75.5613 81.8156 72.3829 86.4105C72.0658 86.8326 71.6888 87.2592 71.2519 87.6905C70.8002 88.0867 70.3292 88.3881 69.8389 88.5944C69.3135 88.8156 68.7992 88.8671 68.296 88.7491C67.7431 88.6107 67.3708 88.3139 67.1791 87.8586C66.9285 87.2632 67.0401 86.5978 67.514 85.8624C67.5693 85.7979 67.6172 85.7159 67.6578 85.6163C67.6983 85.5168 67.7739 85.4025 67.8845 85.2735L62.6108 72.1561C61.4868 69.2897 59.7362 64.9347 57.3592 59.0913C57.2947 59.0359 57.2256 58.9207 57.1519 58.7456C57.1224 58.6756 57.0837 58.4857 57.0358 58.176L56.7926 57.5981C56.5475 56.9179 56.767 56.1659 57.4509 55.342C58.1201 54.4832 58.9451 53.8474 59.9258 53.4346C60.5912 53.1545 61.1682 53.056 61.6566 53.139C62.1801 53.2072 62.5524 53.5041 62.7735 54.0294L62.9947 54.5548C69.6944 58.6201 75.8212 60.2466 81.3751 59.4345C81.9742 59.3885 82.3733 59.406 82.5723 59.4872ZM103.743 62.0793C103.753 59.8489 103.337 57.7355 102.497 55.7392C101.834 54.1631 100.949 52.845 99.8431 51.785C98.7576 50.6752 97.46 49.9433 95.9504 49.5892C94.944 49.3531 94.0906 49.3825 93.3901 49.6773C93.1099 49.7952 92.7891 50.0127 92.4278 50.3297C92.802 50.3371 93.0628 50.516 93.2102 50.8662C93.2987 51.0763 93.3318 51.351 93.3096 51.6902C93.1527 53.5703 93.2299 55.5168 93.5411 57.5297C93.8376 59.5075 94.3692 61.4071 95.1357 63.2283C96.0202 65.3298 97.1757 67.1935 98.6022 68.8194C99.4647 69.6933 100.249 70.3321 100.955 70.7358C101.268 70.8925 101.552 70.9792 101.806 70.9958C102.527 69.8679 103.025 68.5039 103.3 66.904C103.61 65.2893 103.758 63.6811 103.743 62.0793ZM95.2461 43.9487C97.1097 43.5766 98.8976 43.7104 100.61 44.3503C102.322 44.9901 103.84 46.0004 105.163 47.3812C106.472 48.727 107.495 50.2755 108.232 52.0267C109.102 54.0931 109.591 56.3816 109.699 58.8921C109.807 61.4027 109.544 63.8634 108.91 66.2743C108.276 68.6852 107.322 70.7772 106.048 72.5503C104.849 74.2091 103.48 75.3628 101.938 76.0114C100.397 76.66 98.85 76.7548 97.2962 76.2956C95.7424 75.8364 94.3269 74.8243 93.0497 73.2592C91.6877 71.6885 90.5276 69.7649 89.5694 67.4883C88.9945 66.1224 88.5394 64.7473 88.2041 63.3629C87.9884 63.5362 87.6354 63.726 87.1451 63.9324C85.9542 64.4336 85.1893 64.2814 84.8502 63.4758C84.7323 63.1956 84.6715 62.9533 84.6679 62.7486C84.4582 58.9201 85.0283 55.2788 86.378 51.8247C87.748 48.3208 89.9916 45.9129 93.1087 44.6009C93.564 44.4093 94.2765 44.1919 95.2461 43.9487ZM124.878 31.1054C126.721 37.8336 128.829 44.0171 131.202 49.656C132.352 52.3879 133.622 55.1105 135.011 57.824C135.17 58.0047 135.278 58.1651 135.337 58.3052C135.381 58.4102 135.413 58.5826 135.431 58.8222C135.446 58.8572 135.436 58.8821 135.401 58.8969L135.445 59.0019C135.485 59.6858 135.216 60.4175 134.637 61.1972C134.044 61.9418 133.324 62.5334 132.478 62.9719C131.136 63.7017 130.14 63.6878 129.492 62.9301C126.88 60.1538 123.02 56.4188 117.911 51.7252L116.661 50.5195C118.224 55.0154 120.017 59.7649 122.04 64.7678C122.35 65.5033 122.139 66.3751 121.409 67.3833C120.664 68.3564 119.784 69.0568 118.768 69.4843C118.138 69.7496 117.579 69.8408 117.09 69.7578C116.602 69.6748 116.257 69.3457 116.056 68.7706C112.257 59.1556 109.144 49.8494 106.717 40.8521L106.681 40.6198C106.287 39.8788 106.465 38.9793 107.215 37.9214C107.966 36.8634 108.849 36.1207 109.864 35.6932C110.915 35.2509 111.71 35.3285 112.25 35.9258C114.654 38.5011 117.968 41.7236 122.195 45.5932C121.019 42.2125 119.979 38.7129 119.074 35.0944C118.885 34.3497 119.187 33.5009 119.982 32.548C120.761 31.5602 121.642 30.8598 122.622 30.4471C123.883 29.9164 124.635 30.1358 124.878 31.1054ZM159.332 45.3611C159.931 45.3151 160.326 45.5198 160.518 45.9751C160.754 46.5355 160.679 47.2884 160.294 48.234C159.868 49.279 159.077 50.0448 157.921 50.5313C157.361 50.7672 156.858 50.8961 156.414 50.9182C154.307 51.1041 152.501 51.514 150.995 52.1479C148.368 53.2535 146.042 55.2218 144.018 58.0528C143.695 58.5596 143.246 59.0582 142.669 59.5484C142.112 59.9889 141.553 60.3271 140.993 60.5629C140.468 60.7841 140.01 60.8734 139.622 60.8309C139.218 60.7535 138.928 60.5046 138.751 60.0843C138.647 59.8391 138.594 59.6143 138.59 59.4096C138.412 56.1452 138.141 53.2494 137.779 50.7222C137.451 48.1803 136.898 45.6918 136.121 43.2567C135.109 39.9719 134.294 37.594 133.675 36.123C132.038 32.2353 130.032 29.5752 127.657 28.1427C127.393 28.0062 127.187 27.7629 127.04 27.4126C126.745 26.7122 126.963 25.8578 127.693 24.8497C128.408 23.8065 129.239 23.0859 130.184 22.6878C130.815 22.4225 131.329 22.3709 131.727 22.5332C132.256 22.5167 132.672 22.6716 132.974 22.9979C134.823 24.9409 136.856 26.3937 139.076 27.3562C141.28 28.2836 143.433 28.3051 145.534 27.4206C145.92 27.2584 146.468 26.9451 147.18 26.4807C147.641 26.2043 147.941 26.0366 148.081 25.9776C148.677 25.727 149.173 25.6829 149.571 25.8451C149.99 25.9576 150.295 26.2415 150.487 26.6968C150.693 27.1872 150.689 27.766 150.475 28.4332C150.296 29.0857 149.918 29.6571 149.341 30.1473C148.112 31.242 146.779 32.0916 145.343 32.696C143.627 33.4183 141.833 33.761 139.962 33.7238C140.718 35.7147 141.249 37.2225 141.557 38.2474L142.582 41.712C143.845 40.8919 145.123 40.1068 146.415 39.3568L147.128 38.9947C148.529 38.405 149.429 38.583 149.827 39.5287C150.092 40.1591 149.978 40.8669 149.484 41.6521C148.99 42.4372 148.404 43.0547 147.728 43.5043C146.73 44.1715 145.338 45.0256 143.55 46.0669C143.887 47.9452 144.144 49.7332 144.323 51.4309C146.281 49.6174 148.451 48.2094 150.832 47.207C153.459 46.1013 156.292 45.4861 159.332 45.3611Z" fill="#262626"/>
<path d="M72.4089 77.8033L68.7049 79.3136L71.8215 86.957L75.8894 79.7746L72.4089 77.8033ZM77.274 65.1186L81.2061 65.8525L82.1925 60.5676L76.8471 61.1414L77.274 65.1186ZM66.6708 63.5827L67.9863 59.8052L59.7417 56.9341L62.9509 65.053L66.6708 63.5827ZM82.5723 59.4872L81.0626 63.1913L81.3692 63.3163L81.6921 63.3891L82.5723 59.4872ZM83.327 60.8393L79.3561 60.3575L79.3465 60.4368L79.34 60.5164L83.327 60.8393ZM79.9742 73.4441L76.347 71.7578V71.7578L79.9742 73.4441ZM72.3829 86.4105L75.5809 88.8131L75.628 88.7505L75.6725 88.686L72.3829 86.4105ZM71.2519 87.6905L73.8898 90.6973L73.9782 90.6198L74.0618 90.5372L71.2519 87.6905ZM68.296 88.7491L67.3254 92.6295L67.3539 92.6366L67.3826 92.6434L68.296 88.7491ZM67.514 85.8624L64.4773 83.2588L64.2994 83.4663L64.1514 83.696L67.514 85.8624ZM67.6578 85.6163L63.9536 84.1067L63.9536 84.1067L67.6578 85.6163ZM67.8845 85.2735L70.9212 87.8771L72.5014 86.034L71.5958 83.7814L67.8845 85.2735ZM62.6108 72.1561L58.8869 73.6164L58.8931 73.6323L58.8995 73.6482L62.6108 72.1561ZM57.3592 59.0913L61.0644 57.584L60.6989 56.6858L59.9627 56.0546L57.3592 59.0913ZM57.0358 58.176L60.9888 57.5648L60.9136 57.0781L60.7226 56.6243L57.0358 58.176ZM56.7926 57.5981L53.0294 58.954L53.065 59.0529L53.1058 59.1499L56.7926 57.5981ZM57.4509 55.342L60.5285 57.8971L60.5681 57.8494L60.6062 57.8006L57.4509 55.342ZM61.6566 53.139L60.9864 57.0824L61.0627 57.0954L61.1394 57.1054L61.6566 53.139ZM62.9947 54.5548L59.3079 56.1065L59.811 57.3018L60.9197 57.9745L62.9947 54.5548ZM81.3751 59.4345L81.0689 55.4462L80.9321 55.4567L80.7963 55.4766L81.3751 59.4345ZM72.4089 77.8033L75.8894 79.7746C78.5451 75.0856 80.3497 70.4412 81.2061 65.8525L77.274 65.1186L73.3419 64.3847C72.6785 67.9393 71.2395 71.7514 68.9284 75.8321L72.4089 77.8033ZM77.274 65.1186L76.8471 61.1414C74.4308 61.4008 71.5043 61.0303 67.9863 59.8052L66.6708 63.5827L65.3553 67.3602C69.6635 68.8604 73.8058 69.5139 77.7009 69.0957L77.274 65.1186ZM66.6708 63.5827L62.9509 65.053C64.2304 68.2903 66.1496 73.0465 68.7049 79.3136L72.4089 77.8033L76.1128 76.2931C73.5602 70.0326 71.6541 65.3085 70.3908 62.1123L66.6708 63.5827ZM82.5723 59.4872L81.6921 63.3891C81.3534 63.3127 80.9044 63.1416 80.4649 62.7873C80.0163 62.4257 79.7166 61.9848 79.5408 61.5671L83.2275 60.0153L86.9143 58.4636C86.2526 56.8914 84.9203 55.9163 83.4525 55.5852L82.5723 59.4872ZM83.2275 60.0153L79.5408 61.5671C79.3353 61.0788 79.322 60.6382 79.3561 60.3575L83.327 60.8393L87.2978 61.3211C87.4057 60.4322 87.3262 59.4422 86.9143 58.4636L83.2275 60.0153ZM83.327 60.8393L79.34 60.5164C79.0265 64.3874 78.0344 68.1282 76.347 71.7578L79.9742 73.4441L83.6014 75.1303C85.6791 70.6611 86.9222 65.9988 87.3139 61.1622L83.327 60.8393ZM79.9742 73.4441L76.347 71.7578C74.5804 75.558 72.1732 79.6824 69.0932 84.1349L72.3829 86.4105L75.6725 88.686C78.9494 83.9488 81.6031 79.4289 83.6014 75.1303L79.9742 73.4441ZM72.3829 86.4105L69.1849 84.0078C69.0032 84.2496 68.7607 84.5291 68.4419 84.8437L71.2519 87.6905L74.0618 90.5372C74.6169 89.9894 75.1283 89.4155 75.5809 88.8131L72.3829 86.4105ZM71.2519 87.6905L68.6139 84.6836C68.4442 84.8326 68.3336 84.8881 68.2871 84.9077L69.8389 88.5944L71.3906 92.2812C72.3248 91.888 73.1563 91.3409 73.8898 90.6973L71.2519 87.6905ZM69.8389 88.5944L68.2871 84.9077C68.3545 84.8793 68.4821 84.8367 68.6602 84.8189C68.8423 84.8006 69.0314 84.813 69.2095 84.8548L68.296 88.7491L67.3826 92.6434C68.7935 92.9743 70.1703 92.7948 71.3906 92.2812L69.8389 88.5944ZM68.296 88.7491L69.2667 84.8686C69.438 84.9115 69.7544 85.023 70.0956 85.295C70.4528 85.5798 70.7122 85.9417 70.8659 86.3069L67.1791 87.8586L63.4924 89.4104C64.2521 91.2153 65.7649 92.2392 67.3254 92.6295L68.296 88.7491ZM67.1791 87.8586L70.8659 86.3069C71.048 86.7395 71.0835 87.1949 71.0198 87.5747C70.9633 87.9115 70.8504 88.0693 70.8765 88.0289L67.514 85.8624L64.1514 83.696C63.2403 85.1101 62.5584 87.1914 63.4924 89.4104L67.1791 87.8586ZM67.514 85.8624L70.5506 88.466C70.9486 88.0018 71.2001 87.5232 71.3619 87.126L67.6578 85.6163L63.9536 84.1067C64.0343 83.9086 64.1899 83.594 64.4773 83.2588L67.514 85.8624ZM67.6578 85.6163L71.3619 87.126C71.2601 87.3759 71.1511 87.5569 71.081 87.6628C71.0087 87.7722 70.9494 87.8442 70.9212 87.8771L67.8845 85.2735L64.8478 82.67C64.6002 82.9587 64.2225 83.4469 63.9536 84.1067L67.6578 85.6163ZM67.8845 85.2735L71.5958 83.7814L66.3221 70.664L62.6108 72.1561L58.8995 73.6482L64.1732 86.7656L67.8845 85.2735ZM62.6108 72.1561L66.3347 70.6958C65.201 67.8048 63.4426 63.4305 61.0644 57.584L57.3592 59.0913L53.654 60.5985C56.0298 66.4389 57.7725 70.7746 58.8869 73.6164L62.6108 72.1561ZM57.3592 59.0913L59.9627 56.0546C60.1923 56.2514 60.3546 56.4389 60.4585 56.5714C60.5649 56.7072 60.6405 56.8246 60.6892 56.9058C60.7827 57.0616 60.8295 57.1722 60.8386 57.1939L57.1519 58.7456L53.4651 60.2974C53.5524 60.5048 53.9173 61.4092 54.7556 62.1279L57.3592 59.0913ZM57.1519 58.7456L60.8386 57.1939C60.8956 57.3294 60.9325 57.4393 60.9525 57.5021C60.974 57.5698 60.9886 57.6233 60.9972 57.6558C61.0061 57.6899 61.012 57.7151 61.0151 57.7288C61.0184 57.7431 61.02 57.7513 61.0202 57.7521C61.0203 57.7526 61.0173 57.7376 61.0113 57.7028C61.0054 57.669 60.9979 57.6236 60.9888 57.5648L57.0358 58.176L53.0828 58.7873C53.1113 58.9717 53.144 59.1663 53.1813 59.3493C53.1969 59.426 53.278 59.8528 53.4651 60.2974L57.1519 58.7456ZM57.0358 58.176L60.7226 56.6243L60.4793 56.0464L56.7926 57.5981L53.1058 59.1499L53.3491 59.7278L57.0358 58.176ZM56.7926 57.5981L60.5558 56.2423C60.7446 56.7662 60.7197 57.2794 60.6132 57.6445C60.5244 57.9487 60.4157 58.0331 60.5285 57.8971L57.4509 55.342L54.3733 52.787C53.2583 54.13 52.0968 56.3655 53.0294 58.954L56.7926 57.5981ZM57.4509 55.342L60.6062 57.8006C60.865 57.4684 61.1428 57.2622 61.4775 57.1213L59.9258 53.4346L58.374 49.7478C56.7474 50.4325 55.3753 51.498 54.2957 52.8835L57.4509 55.342ZM59.9258 53.4346L61.4775 57.1213C61.5909 57.0736 61.6045 57.081 61.531 57.0935C61.4535 57.1068 61.2593 57.1288 60.9864 57.0824L61.6566 53.139L62.3268 49.1955C60.8196 48.9394 59.4379 49.3001 58.374 49.7478L59.9258 53.4346ZM61.6566 53.139L61.1394 57.1054C60.7591 57.0558 60.2794 56.8948 59.8349 56.5405C59.4038 56.1967 59.1848 55.8141 59.0868 55.5812L62.7735 54.0294L66.4603 52.4777C65.7408 50.7682 64.2398 49.442 62.1739 49.1726L61.6566 53.139ZM62.7735 54.0294L59.0868 55.5812L59.3079 56.1065L62.9947 54.5548L66.6814 53.003L66.4603 52.4777L62.7735 54.0294ZM62.9947 54.5548L60.9197 57.9745C68.1031 62.3333 75.1743 64.3838 81.9539 63.3924L81.3751 59.4345L80.7963 55.4766C76.4682 56.1095 71.2857 54.9069 65.0697 51.1351L62.9947 54.5548ZM81.3751 59.4345L81.6814 63.4227C81.8918 63.4066 81.9674 63.4101 81.9478 63.4093C81.9351 63.4087 81.8572 63.4051 81.7343 63.3849C81.6244 63.3667 81.3759 63.319 81.0626 63.1913L82.5723 59.4872L84.082 55.783C83.3366 55.4792 82.6342 55.4317 82.2996 55.417C81.881 55.3986 81.4575 55.4164 81.0689 55.4462L81.3751 59.4345ZM103.743 62.0793L99.7431 62.0622L99.743 62.0889L99.7432 62.1156L103.743 62.0793ZM99.8431 51.785L96.9836 54.582L97.0286 54.6281L97.0751 54.6726L99.8431 51.785ZM95.9504 49.5892L95.0369 53.4835L95.0369 53.4835L95.9504 49.5892ZM92.4278 50.3297L89.7898 47.3229L82.0372 54.1244L92.3485 54.3289L92.4278 50.3297ZM93.3096 51.6902L97.2958 52.0229L97.2988 51.9869L97.3011 51.951L93.3096 51.6902ZM93.5411 57.5297L97.4969 56.9366L97.4956 56.9275L97.4941 56.9184L93.5411 57.5297ZM98.6022 68.8194L95.5953 71.4574L95.6729 71.5458L95.7554 71.6294L98.6022 68.8194ZM100.955 70.7358L98.9689 74.208L99.0658 74.2634L99.1656 74.3133L100.955 70.7358ZM101.806 70.9958L101.546 74.9873L103.904 75.1415L105.177 73.1498L101.806 70.9958ZM103.3 66.904L99.3717 66.1501L99.3644 66.1883L99.3578 66.2267L103.3 66.904ZM95.2461 43.9487L94.4629 40.0261L94.3674 40.0452L94.273 40.0688L95.2461 43.9487ZM100.61 44.3503L99.2098 48.0972L100.61 44.3503ZM105.163 47.3812L102.275 50.1489L102.285 50.1593L102.296 50.1697L105.163 47.3812ZM108.91 66.2743L112.778 67.2922L112.778 67.2922L108.91 66.2743ZM106.048 72.5503L109.29 74.8927L109.296 74.8843L106.048 72.5503ZM97.2962 76.2956L96.1626 80.1316V80.1316L97.2962 76.2956ZM93.0497 73.2592L96.1488 70.7302L96.1109 70.6838L96.0717 70.6386L93.0497 73.2592ZM88.2041 63.3629L92.0917 62.4213L90.6092 56.3006L85.6992 60.2443L88.2041 63.3629ZM84.6679 62.7486L88.6672 62.6771L88.6659 62.6035L88.6619 62.53L84.6679 62.7486ZM86.378 51.8247L82.6526 50.3681L82.6523 50.3689L86.378 51.8247ZM103.743 62.0793L107.743 62.0963C107.755 59.3437 107.239 56.6952 106.184 54.1874L102.497 55.7392L98.8101 57.2909C99.4352 58.7759 99.7504 60.3542 99.7431 62.0622L103.743 62.0793ZM102.497 55.7392L106.184 54.1874C105.333 52.1667 104.155 50.377 102.611 48.8974L99.8431 51.785L97.0751 54.6726C97.7432 55.313 98.3339 56.1595 98.8101 57.2909L102.497 55.7392ZM99.8431 51.785L102.703 48.988C101.086 47.3357 99.1141 46.2227 96.8639 45.6949L95.9504 49.5892L95.0369 53.4835C95.8058 53.6638 96.4287 54.0147 96.9836 54.582L99.8431 51.785ZM95.9504 49.5892L96.8639 45.6949C95.3257 45.3341 93.5546 45.2682 91.8383 45.9906L93.3901 49.6773L94.9418 53.3641C94.8697 53.3944 94.8075 53.412 94.7611 53.4216C94.7155 53.4312 94.6911 53.4319 94.6931 53.4318C94.7015 53.4315 94.8084 53.4299 95.0369 53.4835L95.9504 49.5892ZM93.3901 49.6773L91.8383 45.9906C91.0005 46.3432 90.3094 46.8671 89.7898 47.3229L92.4278 50.3297L95.0658 53.3365C95.1064 53.3009 95.1372 53.2757 95.1583 53.2592C95.1796 53.2425 95.1881 53.2369 95.184 53.2397C95.1802 53.2423 95.1593 53.2563 95.1217 53.2773C95.0845 53.2981 95.0242 53.3294 94.9418 53.3641L93.3901 49.6773ZM92.4278 50.3297L92.3485 54.3289C91.901 54.32 91.2658 54.1961 90.642 53.7683C90.0221 53.3433 89.6867 52.8057 89.5235 52.4179L93.2102 50.8662L96.897 49.3145C96.5863 48.5765 96.0468 47.7743 95.1661 47.1705C94.2815 46.5639 93.3288 46.3468 92.5071 46.3305L92.4278 50.3297ZM93.2102 50.8662L89.5235 52.4179C89.3967 52.1167 89.349 51.865 89.3302 51.709C89.3114 51.5527 89.3166 51.453 89.3181 51.4293L93.3096 51.6902L97.3011 51.951C97.3455 51.2712 97.3153 50.3085 96.897 49.3145L93.2102 50.8662ZM93.3096 51.6902L89.3235 51.3574C89.1383 53.5763 89.2324 55.8404 89.5881 58.1409L93.5411 57.5297L97.4941 56.9184C97.2274 55.1931 97.1671 53.5642 97.2958 52.0229L93.3096 51.6902ZM93.5411 57.5297L89.5853 58.1227C89.9306 60.4261 90.5516 62.648 91.449 64.7801L95.1357 63.2283L98.8225 61.6766C98.1868 60.1662 97.7446 58.589 97.4969 56.9366L93.5411 57.5297ZM95.1357 63.2283L91.449 64.7801C92.4912 67.2562 93.8703 69.4911 95.5953 71.4574L98.6022 68.8194L101.609 66.1815C100.481 64.8958 99.5493 63.4033 98.8225 61.6766L95.1357 63.2283ZM98.6022 68.8194L95.7554 71.6294C96.7576 72.6447 97.8305 73.5568 98.9689 74.208L100.955 70.7358L102.941 67.2637C102.667 67.1073 102.172 66.7419 101.449 66.0095L98.6022 68.8194ZM100.955 70.7358L99.1656 74.3133C99.7886 74.6249 100.6 74.9255 101.546 74.9873L101.806 70.9958L102.067 67.0044C102.293 67.0191 102.465 67.0603 102.571 67.0927C102.677 67.125 102.736 67.1541 102.744 67.1584L100.955 70.7358ZM101.806 70.9958L105.177 73.1498C106.239 71.4879 106.896 69.5975 107.242 67.5812L103.3 66.904L99.3578 66.2267C99.1544 67.4103 98.8156 68.2478 98.4359 68.8418L101.806 70.9958ZM103.3 66.904L107.228 67.6579C107.587 65.7897 107.76 63.9168 107.743 62.043L103.743 62.0793L99.7432 62.1156C99.7553 63.4453 99.6329 64.7889 99.3717 66.1501L103.3 66.904ZM95.2461 43.9487L96.0293 47.8712C97.1933 47.6388 98.2232 47.7286 99.2098 48.0972L100.61 44.3503L102.01 40.6033C99.5721 39.6923 97.0261 39.5143 94.4629 40.0261L95.2461 43.9487ZM100.61 44.3503L99.2098 48.0972C100.333 48.5168 101.348 49.1816 102.275 50.1489L105.163 47.3812L108.051 44.6136C106.332 42.8193 104.312 41.4634 102.01 40.6033L100.61 44.3503ZM105.163 47.3812L102.296 50.1697C103.252 51.1534 103.999 52.2812 104.545 53.5784L108.232 52.0267L111.919 50.4749C110.99 48.2698 109.692 46.3005 108.031 44.5927L105.163 47.3812ZM108.232 52.0267L104.545 53.5784C105.21 55.1575 105.612 56.9717 105.703 59.0647L109.699 58.8921L113.695 58.7195C113.569 55.7915 112.993 53.0287 111.919 50.4749L108.232 52.0267ZM109.699 58.8921L105.703 59.0647C105.794 61.1775 105.573 63.2368 105.042 65.2564L108.91 66.2743L112.778 67.2922C113.516 64.49 113.821 61.6278 113.695 58.7195L109.699 58.8921ZM108.91 66.2743L105.042 65.2564C104.514 67.2608 103.75 68.8925 102.799 70.2163L106.048 72.5503L109.296 74.8843C110.893 72.6619 112.037 70.1097 112.778 67.2922L108.91 66.2743ZM106.048 72.5503L102.805 70.2079C101.94 71.4051 101.115 72.0182 100.387 72.3247L101.938 76.0114L103.49 79.6981C105.844 78.7073 107.758 77.013 109.29 74.8927L106.048 72.5503ZM101.938 76.0114L100.387 72.3247C99.6672 72.6275 99.0678 72.6481 98.4298 72.4596L97.2962 76.2956L96.1626 80.1316C98.6321 80.8614 101.128 80.6926 103.49 79.6981L101.938 76.0114ZM97.2962 76.2956L98.4298 72.4596C97.8192 72.2791 97.0434 71.8265 96.1488 70.7302L93.0497 73.2592L89.9506 75.7881C91.6104 77.822 93.6656 79.3937 96.1626 80.1316L97.2962 76.2956ZM93.0497 73.2592L96.0717 70.6386C95.0327 69.4404 94.0805 67.8951 93.2562 65.9366L89.5694 67.4883L85.8827 69.0401C86.9747 71.6347 88.3427 73.9366 90.0276 75.8797L93.0497 73.2592ZM89.5694 67.4883L93.2562 65.9366C92.7611 64.7604 92.3745 63.589 92.0917 62.4213L88.2041 63.3629L84.3165 64.3045C84.7043 65.9055 85.2279 67.4844 85.8827 69.0401L89.5694 67.4883ZM88.2041 63.3629L85.6992 60.2443C85.7794 60.1799 85.8387 60.1407 85.8642 60.1244C85.8911 60.1073 85.8994 60.1035 85.8833 60.1122C85.8678 60.1205 85.8365 60.1367 85.7863 60.1603C85.7364 60.1837 85.6726 60.2122 85.5933 60.2456L87.1451 63.9323L88.6968 67.6191C89.2758 67.3754 90.0473 67.013 90.709 66.4815L88.2041 63.3629ZM87.1451 63.9323L85.5933 60.2456C85.298 60.3699 85.6954 60.1192 86.4587 60.271C86.9015 60.3591 87.3833 60.5697 87.8056 60.936C88.2129 61.2893 88.43 61.67 88.537 61.9241L84.8502 63.4758L81.1635 65.0276C81.7754 66.4815 83.0394 67.7476 84.8978 68.1173C86.4261 68.4213 87.8013 67.996 88.6968 67.6191L87.1451 63.9323ZM84.8502 63.4758L88.537 61.9241C88.5408 61.9331 88.5676 61.9976 88.596 62.1108C88.624 62.2223 88.6626 62.4172 88.6672 62.6771L84.6679 62.7486L80.6685 62.8202C80.6846 63.7178 80.9351 64.4849 81.1635 65.0276L84.8502 63.4758ZM84.6679 62.7486L88.6619 62.53C88.4824 59.2525 88.9692 56.1839 90.1037 53.2806L86.378 51.8247L82.6523 50.3689C81.0874 54.3738 80.434 58.5878 80.6738 62.9673L84.6679 62.7486ZM86.378 51.8247L90.1034 53.2813C91.1285 50.6595 92.6562 49.1313 94.6605 48.2877L93.1087 44.6009L91.557 40.9142C87.327 42.6946 84.3675 45.9822 82.6526 50.3681L86.378 51.8247ZM93.1087 44.6009L94.6605 48.2877C94.8221 48.2196 95.2901 48.0615 96.2192 47.8285L95.2461 43.9487L94.273 40.0688C93.2629 40.3222 92.306 40.5989 91.557 40.9142L93.1087 44.6009ZM124.878 31.1054L120.999 32.0785L121.009 32.1203L121.02 32.1618L124.878 31.1054ZM135.011 57.824L131.451 59.6472L131.677 60.0889L132.004 60.462L135.011 57.824ZM135.431 58.8222L131.443 59.1285L131.493 59.7757L131.744 60.374L135.431 58.8222ZM135.401 58.8969L133.849 55.2101L130.162 56.7619L131.714 60.4486L135.401 58.8969ZM135.445 59.0019L139.438 58.7657L139.398 58.0817L139.132 57.4502L135.445 59.0019ZM134.637 61.1972L137.765 63.6907L137.808 63.6369L137.849 63.5818L134.637 61.1972ZM132.478 62.9719L130.637 59.4207L130.602 59.439L130.567 59.4579L132.478 62.9719ZM129.492 62.9301L132.53 60.3285L132.469 60.2575L132.405 60.1894L129.492 62.9301ZM117.911 51.7252L115.134 54.6037L115.169 54.6377L115.205 54.6708L117.911 51.7252ZM116.661 50.5195L119.439 47.6409L112.883 51.8326L116.661 50.5195ZM122.04 64.7678L118.332 66.2674L118.342 66.2936L118.353 66.3195L122.04 64.7678ZM121.409 67.3833L124.586 69.8144L124.618 69.7723L124.649 69.7294L121.409 67.3833ZM117.09 69.7578L117.76 65.8143V65.8143L117.09 69.7578ZM116.056 68.7706L119.833 67.4518L119.806 67.3756L119.776 67.3005L116.056 68.7706ZM106.717 40.8521L102.764 41.4633L102.798 41.681L102.855 41.8936L106.717 40.8521ZM106.681 40.6198L110.634 40.0086L110.531 39.3389L110.212 38.7407L106.681 40.6198ZM107.215 37.9214L103.953 35.6073L103.953 35.6073L107.215 37.9214ZM112.25 35.9258L109.283 38.6083L109.304 38.6317L109.326 38.6548L112.25 35.9258ZM122.195 45.5932L119.493 48.5433L125.973 44.2794L122.195 45.5932ZM119.074 35.0944L122.955 34.1243L122.953 34.1155L122.95 34.1067L119.074 35.0944ZM119.982 32.548L123.054 35.1098L123.088 35.0686L123.121 35.0265L119.982 32.548ZM124.878 31.1054L121.02 32.1618C122.903 39.0358 125.065 45.3872 127.515 51.2077L131.202 49.656L134.889 48.1042C132.592 42.647 130.539 36.6314 128.736 30.049L124.878 31.1054ZM131.202 49.656L127.515 51.2077C128.705 54.0342 130.017 56.8473 131.451 59.6472L135.011 57.824L138.571 56.0009C137.226 53.3738 135.999 50.7415 134.889 48.1042L131.202 49.656ZM135.011 57.824L132.004 60.462C131.999 60.4559 131.958 60.4095 131.901 60.3244C131.845 60.2429 131.747 60.0851 131.651 59.8569L135.337 58.3052L139.024 56.7534C138.73 56.0557 138.315 55.5249 138.018 55.1861L135.011 57.824ZM135.337 58.3052L131.651 59.8569C131.578 59.6846 131.534 59.5416 131.509 59.4475C131.482 59.3505 131.467 59.2748 131.458 59.2283C131.442 59.14 131.441 59.0993 131.443 59.1285L135.431 58.8222L139.419 58.5159C139.396 58.2143 139.335 57.4912 139.024 56.7534L135.337 58.3052ZM135.431 58.8222L131.744 60.374C131.513 59.8232 131.194 58.674 131.73 57.3575C132.267 56.041 133.298 55.4419 133.849 55.2101L135.401 58.8969L136.953 62.5836C137.538 62.337 138.592 61.7181 139.139 60.3768C139.685 59.0354 139.364 57.8563 139.118 57.2705L135.431 58.8222ZM135.401 58.8969L131.714 60.4486L131.758 60.5537L135.445 59.0019L139.132 57.4502L139.088 57.3451L135.401 58.8969ZM135.445 59.0019L131.452 59.2382C131.435 58.9593 131.49 58.7624 131.519 58.6825C131.544 58.6144 131.541 58.6578 131.426 58.8126L134.637 61.1972L137.849 63.5818C138.758 62.3578 139.553 60.7124 139.438 58.7657L135.445 59.0019ZM134.637 61.1972L131.51 58.7036C131.266 59.0089 130.985 59.2403 130.637 59.4207L132.478 62.9719L134.319 66.5232C135.663 65.8265 136.821 64.8746 137.765 63.6907L134.637 61.1972ZM132.478 62.9719L130.567 59.4579C130.204 59.6553 130.32 59.5027 130.781 59.5092C131.045 59.5129 131.386 59.5703 131.743 59.7379C132.099 59.9053 132.36 60.1298 132.53 60.3285L129.492 62.9301L126.453 65.5316C127.523 66.7811 129.02 67.4853 130.669 67.5084C132.125 67.5288 133.41 67.0184 134.389 66.486L132.478 62.9719ZM129.492 62.9301L132.405 60.1894C129.694 57.3071 125.75 53.4951 120.617 48.7796L117.911 51.7252L115.205 54.6708C120.29 59.3425 124.066 63.0005 126.578 65.6707L129.492 62.9301ZM117.911 51.7252L120.688 48.8466L119.439 47.6409L116.661 50.5195L113.884 53.3981L115.134 54.6037L117.911 51.7252ZM116.661 50.5195L112.883 51.8326C114.47 56.3989 116.287 61.2109 118.332 66.2674L122.04 64.7678L125.748 63.2681C123.747 58.3188 121.978 53.632 120.44 49.2064L116.661 50.5195ZM122.04 64.7678L118.353 66.3195C118.254 66.0849 118.197 65.8357 118.182 65.5917C118.168 65.3524 118.196 65.1615 118.226 65.0355C118.281 64.8084 118.339 64.803 118.169 65.0372L121.409 67.3833L124.649 69.7294C125.713 68.2606 126.837 65.8536 125.727 63.216L122.04 64.7678ZM121.409 67.3833L118.233 64.9522C117.863 65.4359 117.521 65.6694 117.217 65.7975L118.768 69.4843L120.32 73.171C122.047 72.4441 123.466 71.277 124.586 69.8144L121.409 67.3833ZM118.768 69.4843L117.217 65.7975C117.03 65.876 117.264 65.7301 117.76 65.8143L117.09 69.7578L116.42 73.7012C117.893 73.9515 119.246 73.6233 120.32 73.171L118.768 69.4843ZM117.09 69.7578L117.76 65.8143C118.269 65.9009 118.799 66.1465 119.228 66.5557C119.623 66.9329 119.781 67.3034 119.833 67.4518L116.056 68.7706L112.28 70.0893C112.831 71.6668 114.144 73.3145 116.42 73.7012L117.09 69.7578ZM116.056 68.7706L119.776 67.3005C116.026 57.8106 112.962 48.6478 110.579 39.8106L106.717 40.8521L102.855 41.8936C105.325 51.0511 108.487 60.5005 112.336 70.2406L116.056 68.7706ZM106.717 40.8521L110.67 40.2408L110.634 40.0086L106.681 40.6198L102.728 41.2311L102.764 41.4633L106.717 40.8521ZM106.681 40.6198L110.212 38.7407C110.335 38.9715 110.422 39.235 110.459 39.5113C110.494 39.7829 110.474 40.0088 110.443 40.1659C110.387 40.4491 110.303 40.4815 110.478 40.2354L107.215 37.9214L103.953 35.6073C102.853 37.1583 101.7 39.7742 103.15 42.499L106.681 40.6198ZM107.215 37.9214L110.478 40.2354C110.874 39.6765 111.201 39.4704 111.416 39.3799L109.864 35.6932L108.313 32.0064C106.496 32.771 105.057 34.0504 103.953 35.6073L107.215 37.9214ZM109.864 35.6932L111.416 39.3799C111.574 39.3133 111.346 39.4481 110.861 39.4008C110.6 39.3754 110.298 39.2994 109.993 39.1453C109.689 38.9914 109.453 38.7958 109.283 38.6083L112.25 35.9258L115.218 33.2432C114.285 32.2119 113.034 31.5747 111.637 31.4385C110.356 31.3137 109.205 31.6308 108.313 32.0064L109.864 35.6932ZM112.25 35.9258L109.326 38.6548C111.831 41.339 115.231 44.6408 119.493 48.5433L122.195 45.5932L124.896 42.643C120.706 38.8064 117.477 35.6633 115.175 33.1967L112.25 35.9258ZM122.195 45.5932L125.973 44.2794C124.838 41.0163 123.832 37.6316 122.955 34.1243L119.074 35.0944L115.194 36.0645C116.126 39.7942 117.2 43.4086 118.416 46.9069L122.195 45.5932ZM119.074 35.0944L122.95 34.1067C123.084 34.6301 122.995 35.0495 122.927 35.2418C122.872 35.3944 122.853 35.3509 123.054 35.1098L119.982 32.548L116.909 29.9863C115.804 31.3124 114.536 33.483 115.198 36.0821L119.074 35.0944ZM119.982 32.548L123.121 35.0265C123.559 34.4719 123.921 34.2402 124.174 34.1338L122.622 30.4471L121.071 26.7603C119.362 27.4794 117.964 28.6485 116.842 30.0696L119.982 32.548ZM122.622 30.4471L124.174 34.1338C124.527 33.9854 123.968 34.3327 123.011 34.0535C122.447 33.8888 121.923 33.552 121.533 33.0862C121.175 32.6576 121.044 32.2585 120.999 32.0785L124.878 31.1054L128.758 30.1323C128.401 28.7084 127.377 26.9936 125.252 26.3738C123.544 25.8751 121.979 26.378 121.071 26.7603L122.622 30.4471ZM159.332 45.3611L159.496 49.3577L159.567 49.3548L159.638 49.3494L159.332 45.3611ZM160.294 48.234L163.998 49.7436V49.7436L160.294 48.234ZM156.414 50.9182L156.216 46.9231L156.139 46.9269L156.063 46.9337L156.414 50.9182ZM144.018 58.0528L140.764 55.7262L140.702 55.8139L140.644 55.9048L144.018 58.0528ZM142.669 59.5484L145.15 62.6854L145.205 62.642L145.259 62.5968L142.669 59.5484ZM139.622 60.8309L138.868 64.7593L139.027 64.7898L139.188 64.8073L139.622 60.8309ZM138.59 59.4096L142.59 59.3381L142.588 59.2647L142.584 59.1914L138.59 59.4096ZM137.779 50.7222L133.811 51.2338L133.815 51.2622L133.819 51.2906L137.779 50.7222ZM136.121 43.2567L132.298 44.4339L132.304 44.4537L132.31 44.4735L136.121 43.2567ZM127.657 28.1427L129.722 24.7172L129.611 24.6501L129.495 24.5904L127.657 28.1427ZM127.693 24.8497L130.933 27.1957L130.963 27.1541L130.992 27.1117L127.693 24.8497ZM131.727 22.5332L130.217 26.2374L131.004 26.5577L131.852 26.5312L131.727 22.5332ZM132.974 22.9979L130.04 25.7161L130.058 25.7356L130.076 25.7549L132.974 22.9979ZM139.076 27.3562L137.484 31.0259L137.504 31.0346L137.524 31.0431L139.076 27.3562ZM147.18 26.4807L145.122 23.0505L145.057 23.0896L144.993 23.131L147.18 26.4807ZM149.571 25.8451L148.062 29.5493L148.292 29.6433L148.533 29.7079L149.571 25.8451ZM150.475 28.4332L146.666 27.2121L146.64 27.2933L146.618 27.3756L150.475 28.4332ZM149.341 30.1473L146.751 27.099L146.716 27.129L146.682 27.1598L149.341 30.1473ZM139.962 33.7238L140.042 29.7246L134.122 29.6072L136.223 35.143L139.962 33.7238ZM141.557 38.2474L145.393 37.1123L145.39 37.1048L145.388 37.0973L141.557 38.2474ZM142.582 41.712L138.747 42.8471L140.267 47.985L144.761 45.0666L142.582 41.712ZM146.415 39.3568L144.604 35.79L144.504 35.8409L144.407 35.8973L146.415 39.3568ZM147.128 38.9947L145.577 35.308L145.445 35.3633L145.318 35.4279L147.128 38.9947ZM147.728 43.5043L145.514 40.173L145.504 40.1796L147.728 43.5043ZM143.55 46.0669L141.537 42.6102L139.118 44.0186L139.612 46.7734L143.55 46.0669ZM144.323 51.4309L140.345 51.8493L141.181 59.7941L147.041 54.3654L144.323 51.4309ZM159.332 45.3611L159.638 49.3494C159.447 49.364 158.894 49.3718 158.239 49.0324C157.513 48.6568 157.056 48.0607 156.831 47.5268L160.518 45.9751L164.205 44.4233C163.788 43.4341 163.037 42.5081 161.916 41.9278C160.865 41.3837 159.816 41.3122 159.026 41.3729L159.332 45.3611ZM160.518 45.9751L156.831 47.5268C156.635 47.06 156.646 46.6921 156.658 46.5649C156.67 46.4515 156.684 46.4922 156.589 46.7243L160.294 48.234L163.998 49.7436C164.527 48.4447 165.056 46.447 164.205 44.4233L160.518 45.9751ZM160.294 48.234L156.589 46.7243C156.582 46.7414 156.58 46.7425 156.586 46.7345C156.591 46.7262 156.597 46.7201 156.599 46.7185C156.605 46.7118 156.553 46.7672 156.369 46.8446L157.921 50.5313L159.473 54.218C161.487 53.3701 163.125 51.8846 163.998 49.7436L160.294 48.234ZM157.921 50.5313L156.369 46.8446C156.24 46.899 156.161 46.9223 156.129 46.9306C156.097 46.9389 156.129 46.9274 156.216 46.9231L156.414 50.9182L156.612 54.9133C157.659 54.8613 158.63 54.573 159.473 54.218L157.921 50.5313ZM156.414 50.9182L156.063 46.9337C153.657 47.1459 151.425 47.627 149.443 48.4611L150.995 52.1479L152.546 55.8346C153.577 55.4009 154.957 55.0623 156.766 54.9027L156.414 50.9182ZM150.995 52.1479L149.443 48.4611C145.997 49.9115 143.124 52.4264 140.764 55.7262L144.018 58.0528L147.272 60.3794C148.961 58.0172 150.739 56.5955 152.546 55.8346L150.995 52.1479ZM144.018 58.0528L140.644 55.9048C140.583 55.9995 140.426 56.2049 140.079 56.5001L142.669 59.5484L145.259 62.5968C146.065 61.9115 146.807 61.1198 147.392 60.2007L144.018 58.0528ZM142.669 59.5484L140.187 56.4115C139.868 56.664 139.618 56.8018 139.441 56.8762L140.993 60.5629L142.545 64.2497C143.489 63.8523 144.356 63.3138 145.15 62.6854L142.669 59.5484ZM140.993 60.5629L139.441 56.8762C139.377 56.9031 139.397 56.8881 139.489 56.87C139.583 56.8517 139.781 56.8246 140.055 56.8546L139.622 60.8309L139.188 64.8073C140.491 64.9496 141.66 64.6221 142.545 64.2497L140.993 60.5629ZM139.622 60.8309L140.375 56.9026C140.804 56.9849 141.282 57.187 141.705 57.5495C142.113 57.8999 142.331 58.2796 142.437 58.5326L138.751 60.0843L135.064 61.636C135.693 63.1303 136.99 64.3989 138.868 64.7593L139.622 60.8309ZM138.751 60.0843L142.437 58.5326C142.475 58.6226 142.582 58.9065 142.59 59.3381L138.59 59.4096L134.591 59.4812C134.606 60.322 134.82 61.0557 135.064 61.636L138.751 60.0843ZM138.59 59.4096L142.584 59.1914C142.401 55.8404 142.121 52.824 141.738 50.1538L137.779 50.7222L133.819 51.2906C134.161 53.6748 134.423 56.45 134.596 59.6279L138.59 59.4096ZM137.779 50.7222L141.746 50.2107C141.387 47.4301 140.782 44.7055 139.931 42.04L136.121 43.2567L132.31 44.4735C133.014 46.6781 133.514 48.9305 133.811 51.2338L137.779 50.7222ZM136.121 43.2567L139.944 42.0795C138.927 38.7778 138.063 36.2381 137.361 34.5712L133.675 36.123L129.988 37.6747C130.525 38.9499 131.292 41.166 132.298 44.4339L136.121 43.2567ZM133.675 36.123L137.361 34.5712C135.558 30.2858 133.112 26.7613 129.722 24.7172L127.657 28.1427L125.591 31.5681C126.953 32.3891 128.519 34.1848 129.988 37.6747L133.675 36.123ZM127.657 28.1427L129.495 24.5904C130.273 24.9929 130.615 25.5954 130.727 25.8609L127.04 27.4126L123.353 28.9644C123.76 29.9303 124.513 31.0195 125.818 31.6949L127.657 28.1427ZM127.04 27.4126L130.727 25.8609C130.838 26.1259 130.897 26.4002 130.91 26.66C130.923 26.9136 130.89 27.1109 130.858 27.2339C130.803 27.4526 130.751 27.4467 130.933 27.1957L127.693 24.8497L124.453 22.5036C123.446 23.895 122.235 26.3068 123.353 28.9644L127.04 27.4126ZM127.693 24.8497L130.992 27.1117C131.375 26.5535 131.646 26.4125 131.736 26.3746L130.184 22.6878L128.633 19.0011C126.831 19.7592 125.442 21.0595 124.394 22.5876L127.693 24.8497ZM130.184 22.6878L131.736 26.3746C131.795 26.3498 131.686 26.4058 131.442 26.4302C131.18 26.4564 130.733 26.4476 130.217 26.2374L131.727 22.5332L133.237 18.829C131.411 18.0848 129.683 18.5588 128.633 19.0011L130.184 22.6878ZM131.727 22.5332L131.852 26.5312C131.696 26.5361 131.402 26.5203 131.039 26.3852C130.659 26.2436 130.312 26.0105 130.04 25.7161L132.974 22.9979L135.909 20.2796C134.669 18.9418 133.047 18.49 131.602 18.5351L131.727 22.5332ZM132.974 22.9979L130.076 25.7549C132.254 28.0444 134.722 29.8278 137.484 31.0259L139.076 27.3562L140.667 23.6864C138.991 22.9596 137.391 21.8375 135.872 20.2408L132.974 22.9979ZM139.076 27.3562L137.524 31.0431C140.667 32.3652 143.94 32.4317 147.086 31.1073L145.534 27.4206L143.983 23.7338C142.926 24.1785 141.893 24.202 140.627 23.6692L139.076 27.3562ZM145.534 27.4206L147.086 31.1073C147.818 30.7992 148.614 30.3209 149.366 29.8304L147.18 26.4807L144.993 23.131C144.683 23.3337 144.438 23.484 144.251 23.5908C144.053 23.7035 143.973 23.7381 143.983 23.7338L145.534 27.4206ZM147.18 26.4807L149.237 29.911C149.449 29.7838 149.6 29.6961 149.7 29.6405C149.724 29.6273 149.742 29.6173 149.756 29.61C149.762 29.6064 149.767 29.6037 149.771 29.6018C149.774 29.5999 149.776 29.5991 149.776 29.5991C149.776 29.5992 149.773 29.6004 149.769 29.6027C149.764 29.6049 149.757 29.6087 149.746 29.6136C149.728 29.6223 149.689 29.6409 149.633 29.6644L148.081 25.9776L146.529 22.2909C146.074 22.4826 145.512 22.8164 145.122 23.0505L147.18 26.4807ZM148.081 25.9776L149.633 29.6644C149.736 29.6211 149.045 29.9499 148.062 29.5493L149.571 25.8451L151.081 22.141C149.302 21.4158 147.617 21.833 146.529 22.2909L148.081 25.9776ZM149.571 25.8451L148.533 29.7079C148.138 29.6018 147.733 29.3909 147.389 29.0704C147.057 28.762 146.883 28.4471 146.8 28.2486L150.487 26.6968L154.173 25.1451C153.579 23.733 152.398 22.463 150.61 21.9823L149.571 25.8451ZM150.487 26.6968L146.8 28.2486C146.532 27.612 146.682 27.1616 146.666 27.2121L150.475 28.4332L154.284 29.6543C154.696 28.3703 154.854 26.7624 154.173 25.1451L150.487 26.6968ZM150.475 28.4332L146.618 27.3756C146.641 27.2884 146.68 27.2072 146.721 27.1443C146.761 27.0846 146.783 27.0724 146.751 27.099L149.341 30.1473L151.931 33.1956C153.046 32.2489 153.916 31.01 154.333 29.4908L150.475 28.4332ZM149.341 30.1473L146.682 27.1598C145.762 27.9788 144.799 28.5849 143.791 29.0093L145.343 32.696L146.895 36.3828C148.759 35.5983 150.462 34.5053 152.001 33.1348L149.341 30.1473ZM145.343 32.696L143.791 29.0093C142.594 29.5134 141.356 29.7507 140.042 29.7246L139.962 33.7238L139.883 37.7231C142.311 37.7712 144.66 37.3233 146.895 36.3828L145.343 32.696ZM139.962 33.7238L136.223 35.143C136.97 37.1137 137.461 38.5136 137.726 39.3976L141.557 38.2474L145.388 37.0973C145.038 35.9315 144.465 34.3157 143.702 32.3047L139.962 33.7238ZM141.557 38.2474L137.722 39.3826L138.747 42.8471L142.582 41.712L146.418 40.5769L145.393 37.1123L141.557 38.2474ZM142.582 41.712L144.761 45.0666C145.968 44.2826 147.189 43.5326 148.423 42.8163L146.415 39.3568L144.407 35.8973C143.057 36.6811 141.722 37.5012 140.404 38.3574L142.582 41.712ZM146.415 39.3568L148.225 42.9236L148.939 42.5615L147.128 38.9947L145.318 35.4279L144.604 35.79L146.415 39.3568ZM147.128 38.9947L148.68 42.6814C149.081 42.5125 148.772 42.7473 148.077 42.6099C147.669 42.529 147.215 42.3328 146.816 41.9871C146.431 41.6542 146.233 41.3006 146.14 41.0804L149.827 39.5287L153.514 37.9769C152.871 36.4496 151.556 35.143 149.63 34.762C148.036 34.4466 146.576 34.8872 145.577 35.308L147.128 38.9947ZM149.827 39.5287L146.14 41.0804C145.968 40.6705 145.935 40.243 145.991 39.8943C146.041 39.5869 146.14 39.4559 146.098 39.5216L149.484 41.6521L152.869 43.7825C153.788 42.3222 154.454 40.2125 153.514 37.9769L149.827 39.5287ZM149.484 41.6521L146.098 39.5216C145.863 39.8961 145.657 40.0779 145.514 40.1731L147.728 43.5043L149.942 46.8356C151.152 46.0315 152.117 44.9784 152.869 43.7825L149.484 41.6521ZM147.728 43.5043L145.504 40.1796C144.607 40.7793 143.296 41.5856 141.537 42.6102L143.55 46.0669L145.562 49.5235C147.379 48.4657 148.854 47.5637 149.952 46.829L147.728 43.5043ZM143.55 46.0669L139.612 46.7734C139.934 48.5672 140.178 50.2586 140.345 51.8493L144.323 51.4309L148.301 51.0124C148.111 49.2078 147.839 47.3232 147.487 45.3603L143.55 46.0669ZM144.323 51.4309L147.041 54.3654C148.668 52.8581 150.446 51.7093 152.384 50.8937L150.832 47.207L149.28 43.5202C146.455 44.7094 143.893 46.3766 141.605 48.4964L144.323 51.4309ZM150.832 47.207L152.384 50.8937C154.542 49.9856 156.901 49.4644 159.496 49.3577L159.332 45.3611L159.167 41.3645C155.683 41.5077 152.376 42.2171 149.28 43.5202L150.832 47.207Z" fill="#00FE00" mask="url(#path-6-outside-1_793_476)"/>
</g>
<defs>
<clipPath id="clip0_793_476">
<rect width="252" height="300" fill="white"/>
</clipPath>
</defs>
</svg>
