<svg width="225" height="83" viewBox="0 0 225 83" fill="none" xmlns="http://www.w3.org/2000/svg">
<path d="M107.299 41.8261C110.403 41.8261 113.08 42.4181 115.332 43.6022C117.612 44.7862 119.37 46.4797 120.606 48.6826C121.869 50.858 122.501 53.4326 122.501 56.4065C122.501 59.3529 121.869 61.9 120.606 64.0478C119.37 66.1957 117.612 67.8478 115.332 69.0043C113.08 70.1609 110.403 70.7391 107.299 70.7391H97V41.8261H107.299ZM107.299 66.65C110.595 66.65 113.122 65.7551 114.879 63.9652C116.664 62.1478 117.557 59.6283 117.557 56.4065C117.557 53.1572 116.664 50.5964 114.879 48.7239C113.122 46.8514 110.595 45.9152 107.299 45.9152H101.902V66.65H107.299Z" fill="#26251E"/>
<path d="M135.661 71.0283C133.602 71.0283 131.789 70.5739 130.224 69.6652C128.686 68.7565 127.477 67.4899 126.598 65.8652C125.747 64.2406 125.321 62.3681 125.321 60.2478C125.321 58.2377 125.747 56.4478 126.598 54.8783C127.45 53.3087 128.631 52.0696 130.141 51.1609C131.652 50.2522 133.368 49.7978 135.291 49.7978C137.241 49.7978 138.957 50.2246 140.44 51.0783C141.923 51.9319 143.077 53.1297 143.901 54.6717C144.752 56.1862 145.178 57.9486 145.178 59.9587C145.178 60.2891 145.164 60.6471 145.137 61.0326C145.109 61.3906 145.068 61.7761 145.013 62.1891H130.347C130.484 63.1529 130.787 63.9928 131.253 64.7087C131.748 65.3971 132.366 65.9341 133.107 66.3196C133.849 66.7051 134.7 66.8978 135.661 66.8978C136.815 66.8978 137.845 66.6638 138.751 66.1957C139.685 65.7275 140.33 65.108 140.687 64.337L144.766 65.7C143.942 67.3522 142.72 68.6601 141.099 69.6239C139.479 70.5601 137.666 71.0283 135.661 71.0283ZM140.111 58.3891C140.083 57.5355 139.85 56.7645 139.41 56.0761C138.971 55.3877 138.394 54.8507 137.68 54.4652C136.966 54.0522 136.17 53.8457 135.291 53.8457C134.522 53.8457 133.794 54.0384 133.107 54.4239C132.421 54.8094 131.83 55.3464 131.336 56.0348C130.869 56.6957 130.567 57.4804 130.43 58.3891H140.111Z" fill="#26251E"/>
<path d="M152.12 64.0891C152.313 64.8601 152.642 65.4522 153.109 65.8652C153.603 66.2783 154.139 66.5674 154.716 66.7326C155.292 66.8703 155.842 66.9391 156.364 66.9391C157.435 66.9391 158.272 66.7326 158.877 66.3196C159.508 65.879 159.824 65.3283 159.824 64.6674C159.824 64.1167 159.618 63.6899 159.206 63.387C158.794 63.0841 158.259 62.85 157.599 62.6848C156.968 62.492 156.309 62.2993 155.622 62.1065C154.881 61.9138 154.084 61.6935 153.233 61.4457C152.409 61.1978 151.626 60.8536 150.884 60.413C150.143 59.9725 149.539 59.408 149.072 58.7196C148.605 58.0312 148.372 57.1775 148.372 56.1587C148.372 54.8645 148.729 53.7493 149.443 52.813C150.157 51.8493 151.132 51.1058 152.368 50.5826C153.603 50.0594 154.99 49.7978 156.528 49.7978C158.368 49.7978 159.961 50.1833 161.307 50.9543C162.653 51.7254 163.628 52.8543 164.232 54.3413L160.154 55.663C159.961 55.2775 159.673 54.9471 159.289 54.6717C158.932 54.3964 158.492 54.2036 157.97 54.0935C157.476 53.9558 156.968 53.887 156.446 53.887C155.567 53.887 154.826 54.0659 154.221 54.4239C153.617 54.7819 153.315 55.2913 153.315 55.9522C153.315 56.2826 153.411 56.5717 153.603 56.8196C153.823 57.0674 154.112 57.2739 154.469 57.4391C154.826 57.5768 155.251 57.7145 155.746 57.8522C156.24 57.9623 156.762 58.1 157.311 58.2652C158.19 58.513 159.055 58.7884 159.906 59.0913C160.785 59.3667 161.582 59.7246 162.296 60.1652C163.037 60.6058 163.614 61.1841 164.026 61.9C164.466 62.6159 164.713 63.5246 164.768 64.6261C164.768 65.8101 164.424 66.8978 163.738 67.8891C163.051 68.8529 162.062 69.6239 160.772 70.2022C159.508 70.7529 157.998 71.0283 156.24 71.0283C154.208 71.0283 152.464 70.5877 151.008 69.7065C149.552 68.8254 148.564 67.4072 148.042 65.4522L152.12 64.0891Z" fill="#26251E"/>
<path d="M169.396 50.087H174.051V70.7391H169.396V50.087ZM171.744 46.9478C170.893 46.9478 170.179 46.6587 169.602 46.0804C169.025 45.5022 168.737 44.8138 168.737 44.0152C168.737 43.1616 169.025 42.4457 169.602 41.8674C170.179 41.2891 170.893 41 171.744 41C172.568 41 173.269 41.2891 173.845 41.8674C174.422 42.4457 174.71 43.1616 174.71 44.0152C174.71 44.8138 174.422 45.5022 173.845 46.0804C173.269 46.6587 172.568 46.9478 171.744 46.9478Z" fill="#26251E"/>
<path d="M194.869 50.087H199.071V67.6413C199.071 69.9819 198.494 71.992 197.34 73.6717C196.187 75.379 194.525 76.687 192.356 77.5957C190.186 78.5319 187.577 79 184.528 79L183.828 74.9935C187.289 74.9109 189.911 74.25 191.697 73.0109C193.509 71.7717 194.416 69.9957 194.416 67.6826V67.6413H194.951C194.319 68.5775 193.399 69.3761 192.191 70.037C191.01 70.6978 189.596 71.0283 187.948 71.0283C186.135 71.0283 184.528 70.5877 183.128 69.7065C181.727 68.8254 180.628 67.5862 179.832 65.9891C179.063 64.392 178.679 62.5333 178.679 60.413C178.679 58.2928 179.063 56.4341 179.832 54.837C180.628 53.2399 181.727 52.0007 183.128 51.1196C184.528 50.2384 186.135 49.7978 187.948 49.7978C188.964 49.7978 189.884 49.9355 190.708 50.2109C191.559 50.4587 192.301 50.8029 192.932 51.2435C193.592 51.6565 194.127 52.1246 194.539 52.6478L194.869 50.087ZM183.663 60.413C183.663 62.313 184.158 63.8551 185.146 65.0391C186.135 66.2232 187.453 66.8152 189.101 66.8152C190.062 66.8152 190.941 66.5674 191.738 66.0717C192.534 65.5486 193.18 64.8051 193.674 63.8413C194.168 62.8775 194.416 61.7348 194.416 60.413C194.416 59.0362 194.168 57.8797 193.674 56.9435C193.18 55.9797 192.52 55.25 191.697 54.7543C190.9 54.2587 190.035 54.0109 189.101 54.0109C187.453 54.0109 186.135 54.6029 185.146 55.787C184.158 56.9435 183.663 58.4855 183.663 60.413Z" fill="#26251E"/>
<path d="M204.121 50.087H208.323L208.652 52.1109C209.339 51.3949 210.149 50.8304 211.083 50.4174C212.044 50.0043 213.074 49.7978 214.173 49.7978C215.793 49.7978 217.18 50.142 218.334 50.8304C219.514 51.4913 220.421 52.4826 221.052 53.8043C221.684 55.0986 222 56.7232 222 58.6783V70.7391H217.345V59.2978C217.345 57.563 216.988 56.2551 216.274 55.3739C215.587 54.4928 214.543 54.0522 213.143 54.0522C211.715 54.0522 210.63 54.5065 209.888 55.4152C209.147 56.2964 208.776 57.6043 208.776 59.3391V70.7391H204.121V50.087Z" fill="#26251E"/>
<path d="M111.739 34.914C109.696 34.914 107.778 34.5509 105.984 33.8247C104.19 33.0985 102.617 32.079 101.264 30.7663C99.9395 29.4256 98.8907 27.8475 98.1178 26.032C97.3726 24.1885 97 22.1635 97 19.957C97 17.7784 97.3726 15.7813 98.1178 13.9658C98.8907 12.1224 99.9395 10.5303 101.264 9.18963C102.617 7.84895 104.19 6.81551 105.984 6.0893C107.778 5.3631 109.696 5 111.739 5C113.781 5 115.686 5.3631 117.452 6.0893C119.246 6.81551 120.806 7.84895 122.131 9.18963C123.483 10.5303 124.532 12.1224 125.277 13.9658C126.05 15.7813 126.437 17.7784 126.437 19.957C126.437 22.1635 126.05 24.1885 125.277 26.032C124.532 27.8475 123.483 29.4256 122.131 30.7663C120.806 32.079 119.246 33.0985 117.452 33.8247C115.686 34.5509 113.781 34.914 111.739 34.914ZM111.739 30.6825C113.616 30.6825 115.286 30.2495 116.749 29.3837C118.211 28.4899 119.357 27.247 120.185 25.6549C121.013 24.0349 121.427 22.1356 121.427 19.957C121.427 17.7505 121.013 15.8512 120.185 14.2591C119.357 12.667 118.211 11.4381 116.749 10.5722C115.286 9.67843 113.616 9.23153 111.739 9.23153C109.862 9.23153 108.192 9.67843 106.729 10.5722C105.267 11.4381 104.107 12.667 103.252 14.2591C102.424 15.8512 102.01 17.7505 102.01 19.957C102.01 22.1356 102.424 24.0349 103.252 25.6549C104.107 27.247 105.267 28.4899 106.729 29.3837C108.192 30.2495 109.862 30.6825 111.739 30.6825Z" fill="#26251E"/>
<path d="M136.919 31.5204L137.457 31.3947V43H132.778V13.6725H137.001L137.333 16.2701C138.023 15.4601 138.92 14.7758 140.024 14.2172C141.128 13.6586 142.466 13.3793 144.04 13.3793C145.834 13.3793 147.421 13.8262 148.801 14.72C150.208 15.6137 151.299 16.8706 152.072 18.4906C152.872 20.0827 153.272 21.968 153.272 24.1466C153.272 26.2973 152.872 28.1827 152.072 29.8026C151.299 31.4226 150.222 32.6795 148.842 33.5733C147.462 34.4671 145.861 34.914 144.04 34.914C142.384 34.914 140.948 34.5928 139.734 33.9504C138.519 33.28 137.581 32.47 136.919 31.5204ZM148.263 24.1466C148.263 22.2194 147.752 20.6553 146.731 19.4542C145.737 18.2532 144.454 17.6527 142.88 17.6527C141.887 17.6527 140.976 17.9041 140.148 18.4068C139.347 18.9096 138.699 19.6358 138.202 20.5854C137.705 21.5351 137.457 22.7222 137.457 24.1466C137.457 25.5432 137.705 26.7302 138.202 27.7078C138.699 28.6575 139.347 29.3837 140.148 29.8864C140.976 30.3892 141.887 30.6406 142.88 30.6406C144.454 30.6406 145.737 30.0401 146.731 28.839C147.752 27.638 148.263 26.0739 148.263 24.1466Z" fill="#26251E"/>
<path d="M168.988 34.914C166.918 34.914 165.096 34.4531 163.523 33.5314C161.977 32.6097 160.763 31.3249 159.879 29.677C159.024 28.029 158.596 26.1297 158.596 23.979C158.596 21.9401 159.024 20.1246 159.879 18.5325C160.735 16.9405 161.922 15.6836 163.44 14.7619C164.958 13.8401 166.683 13.3793 168.615 13.3793C170.575 13.3793 172.3 13.8122 173.79 14.6781C175.281 15.5439 176.44 16.7589 177.268 18.323C178.124 19.8592 178.551 21.6468 178.551 23.6858C178.551 24.0209 178.538 24.384 178.51 24.7751C178.482 25.1382 178.441 25.5292 178.386 25.9482H163.647C163.785 26.9258 164.088 27.7777 164.558 28.5039C165.054 29.2021 165.676 29.7468 166.421 30.1378C167.166 30.5288 168.022 30.7244 168.988 30.7244C170.147 30.7244 171.182 30.487 172.093 30.0121C173.031 29.5373 173.68 28.9089 174.039 28.1268L178.137 29.5094C177.309 31.1852 176.081 32.5119 174.453 33.4895C172.824 34.4392 171.003 34.914 168.988 34.914ZM173.459 22.0937C173.431 21.2279 173.197 20.4458 172.755 19.7475C172.314 19.0492 171.734 18.5046 171.016 18.1136C170.299 17.6946 169.498 17.4851 168.615 17.4851C167.842 17.4851 167.111 17.6806 166.421 18.0717C165.731 18.4627 165.137 19.0073 164.64 19.7056C164.171 20.376 163.868 21.172 163.73 22.0937H173.459Z" fill="#26251E"/>
<path d="M185.032 13.6725H189.255L189.586 15.7255C190.276 14.9993 191.09 14.4267 192.029 14.0077C192.995 13.5888 194.03 13.3793 195.134 13.3793C196.762 13.3793 198.156 13.7284 199.315 14.4267C200.502 15.097 201.413 16.1025 202.048 17.4432C202.683 18.756 203 20.4039 203 22.387V34.6207H198.322V23.0154C198.322 21.2558 197.963 19.9291 197.245 19.0353C196.555 18.1415 195.506 17.6946 194.099 17.6946C192.663 17.6946 191.573 18.1555 190.828 19.0772C190.083 19.971 189.71 21.2977 189.71 23.0573V34.6207H185.032V13.6725Z" fill="#26251E"/>
<path d="M41 0.726562C76.5753 0.726562 82 6.15121 82 41.7266C82 77.3019 76.5753 82.7266 41 82.7266C5.42465 82.7266 0 77.3019 0 41.7266C0 6.15121 5.42465 0.726562 41 0.726562ZM40.8906 16.4258C26.9164 16.4258 15.5879 27.7543 15.5879 41.7285C15.5879 46.7757 15.5879 58.0219 15.5879 63.665C15.588 65.5281 17.091 67.0312 18.9541 67.0312H40.8906C54.8647 67.0311 66.1932 55.7026 66.1934 41.7285C66.1934 27.7544 54.8647 16.4259 40.8906 16.4258ZM40.8906 21.4863C52.0699 21.4864 61.1328 30.5492 61.1328 41.7285C61.1327 52.9078 52.0699 61.9706 40.8906 61.9707C29.7113 61.9707 20.6485 52.9078 20.6484 41.7285C20.6484 30.5491 29.7113 21.4863 40.8906 21.4863ZM32.6445 32.2549C31.9921 32.0027 31.3503 32.6469 31.5996 33.3037L39.3145 53.6045C39.6345 54.4468 40.877 54.2162 40.877 53.3145V41.6836H52.665C53.5605 41.6836 53.7908 40.4368 52.9551 40.1133L32.6445 32.2549Z" fill="#26251E"/>
</svg>
